<svg width="96" height="123" viewBox="0 0 96 123" fill="none" xmlns="http://www.w3.org/2000/svg">
<path d="M31.2621 105.502H37.9574C38.822 105.502 39.5772 105.593 40.223 105.775C40.8741 105.958 41.4157 106.213 41.848 106.541C42.2855 106.869 42.6136 107.262 42.8324 107.721C43.0511 108.179 43.1605 108.684 43.1605 109.236C43.1605 109.918 42.9991 110.525 42.6761 111.057C42.3532 111.583 41.8741 112.002 41.2386 112.314L43.6761 117.119H38.5746L36.7308 112.9H35.7777V117.111H31.2621V105.502ZM36.0511 111.486C36.4209 111.486 36.7517 111.434 37.0433 111.33C37.335 111.226 37.5824 111.08 37.7855 110.892C37.9886 110.7 38.1449 110.473 38.2543 110.213C38.3636 109.947 38.4183 109.658 38.4183 109.346C38.4183 109.033 38.3636 108.747 38.2543 108.486C38.1449 108.221 37.9886 107.994 37.7855 107.807C37.5824 107.614 37.335 107.465 37.0433 107.361C36.7517 107.257 36.4209 107.205 36.0511 107.205H35.7855L35.7777 111.486H36.0511ZM47.8793 107.283H44.5668V105.494H55.7074V107.283H52.3949V117.111H47.8793V107.283ZM57.4027 105.502H61.9261L61.9183 115.322H66.3558V117.111H57.4027V105.502Z" fill="#0057CC"/>
<path d="M9.41834 83.5099L8.15857 80.7633H12.619L17.9511 91.6544H13.1683L12.3627 89.9112H8.07068L7.27234 91.6544H5.41932L9.41834 83.5099ZM11.5936 88.234L10.2167 85.2457L8.84705 88.234H11.5936ZM19.4452 80.7633H23.6859L23.6786 91.6471H19.4452V80.7633ZM31.1786 89.2301C31.6962 89.4937 32.2382 89.6915 32.8046 89.8233C33.371 89.9552 33.8983 90.0211 34.3866 90.0211C34.9481 90.0211 35.3583 89.9405 35.6171 89.7794C35.8807 89.6183 36.0126 89.3985 36.0126 89.1202C36.0126 89.0323 35.9955 88.942 35.9613 88.8492C35.932 88.7564 35.871 88.6661 35.7782 88.5782C35.6903 88.4854 35.5658 88.3951 35.4047 88.3072C35.2484 88.2144 35.0433 88.1241 34.7894 88.0362L33.4784 87.5894C32.5409 87.2672 31.8353 86.8326 31.3617 86.2857C30.8881 85.734 30.6512 85.0797 30.6512 84.3228C30.6512 83.8346 30.7538 83.3658 30.9589 82.9166C31.1639 82.4625 31.474 82.0645 31.889 81.7227C32.3041 81.3761 32.8265 81.1002 33.4564 80.8951C34.0912 80.69 34.8334 80.5875 35.683 80.5875C36.1029 80.5875 36.5057 80.6119 36.8915 80.6607C37.2772 80.7096 37.6386 80.773 37.9755 80.8512C38.3173 80.9293 38.6298 81.0196 38.913 81.1222C39.1962 81.2198 39.4452 81.3175 39.66 81.4151L38.869 82.8434C38.7128 82.7457 38.5468 82.6602 38.371 82.587C38.2001 82.5138 38.0267 82.4527 37.851 82.4039C37.6801 82.3551 37.5116 82.3185 37.3456 82.294C37.1796 82.2696 37.0282 82.2574 36.8915 82.2574C36.6571 82.2574 36.452 82.2892 36.2762 82.3526C36.1005 82.4112 35.9515 82.4918 35.8295 82.5943C35.7123 82.692 35.622 82.8043 35.5585 82.9312C35.4999 83.0533 35.4706 83.1754 35.4706 83.2975C35.4706 83.4049 35.495 83.5099 35.5438 83.6124C35.5975 83.7101 35.6854 83.8077 35.8075 83.9054C35.9345 83.9981 36.098 84.0934 36.2982 84.191C36.5033 84.2838 36.7572 84.3814 37.0599 84.484L37.9388 84.7769C38.891 85.0943 39.6185 85.5313 40.1215 86.088C40.6244 86.6446 40.8759 87.3185 40.8759 88.1095C40.8759 88.6466 40.7538 89.1422 40.5096 89.5963C40.2704 90.0504 39.9115 90.4435 39.433 90.7755C38.9545 91.1026 38.3588 91.359 37.6459 91.5445C36.9379 91.7252 36.1151 91.8155 35.1776 91.8155C34.7284 91.8155 34.2938 91.7911 33.8739 91.7423C33.4589 91.6983 33.0512 91.63 32.6508 91.5372C32.2553 91.4444 31.8646 91.3272 31.4789 91.1856C31.0931 91.044 30.7074 90.878 30.3217 90.6876L31.1786 89.2301ZM42.9633 85.5973H42.1429V84.3888H42.9633V81.9718H46.9403V84.3888H48.8519L48.1049 85.5973H46.9403V88.8858C46.9403 89.3839 47.0502 89.7672 47.2699 90.0357C47.4945 90.3043 47.8143 90.4386 48.2294 90.4386L47.7753 91.442C47.5214 91.5494 47.2504 91.6324 46.9623 91.691C46.6791 91.7545 46.3495 91.7862 45.9735 91.7862C45.4462 91.7862 44.9921 91.7203 44.6112 91.5885C44.2304 91.4518 43.9179 91.2589 43.6737 91.0099C43.4296 90.7608 43.2489 90.4557 43.1317 90.0943C43.0194 89.733 42.9633 89.3253 42.9633 88.8712V85.5973ZM49.9579 84.3814H53.9349V88.8199C53.9349 89.0152 53.952 89.1788 53.9862 89.3106C54.0204 89.4425 54.0717 89.5499 54.14 89.6329C54.2133 89.711 54.3012 89.7696 54.4037 89.8087C54.5062 89.8429 54.6283 89.86 54.7699 89.86C54.9457 89.86 55.0995 89.8331 55.2313 89.7794C55.3632 89.7208 55.4974 89.6207 55.6342 89.4791V84.3814H59.6112V91.6397H56.1029L55.7513 90.5851C55.307 91.0196 54.8261 91.3297 54.3085 91.5152C53.7909 91.6959 53.2636 91.7862 52.7264 91.7862C51.8427 91.7862 51.1591 91.5494 50.6757 91.0758C50.1971 90.5973 49.9579 89.8624 49.9579 88.8712V84.3814ZM61.1859 88.0216C61.1859 87.4503 61.2836 86.9327 61.4789 86.4688C61.6791 86.005 61.9647 85.6095 62.3358 85.2823C62.7069 84.9503 63.1561 84.6964 63.6835 84.5206C64.2157 84.3399 64.8114 84.2496 65.4706 84.2496C65.9735 84.2496 66.4252 84.3106 66.8256 84.4327C67.226 84.5499 67.5702 84.7061 67.8583 84.9015V79.5548H71.8353V91.6471H68.1732L67.8729 90.7389C67.7362 90.8707 67.5726 91.0001 67.3822 91.127C67.1918 91.254 66.9818 91.3663 66.7523 91.464C66.5228 91.5616 66.2738 91.6397 66.0053 91.6983C65.7416 91.7569 65.4633 91.7862 65.1703 91.7862C64.6185 91.7862 64.101 91.7057 63.6176 91.5445C63.1342 91.3834 62.7118 91.1466 62.3505 90.8341C61.9891 90.5167 61.7035 90.1236 61.4935 89.6549C61.2885 89.1812 61.1859 88.6368 61.1859 88.0216ZM65.2875 87.8824C65.2875 88.3023 65.3265 88.6612 65.4047 88.9591C65.4877 89.2569 65.6 89.5011 65.7416 89.6915C65.8832 89.877 66.0516 90.0138 66.247 90.1017C66.4423 90.1895 66.6571 90.2335 66.8915 90.2335C67.077 90.2335 67.2504 90.2018 67.4115 90.1383C67.5775 90.0699 67.7264 89.9845 67.8583 89.8819V85.8683C67.7362 85.7608 67.597 85.6778 67.4408 85.6192C67.2894 85.5606 67.1405 85.5313 66.994 85.5313C66.7499 85.5313 66.5228 85.5777 66.3129 85.6705C66.1078 85.7584 65.9271 85.8976 65.7709 86.088C65.6195 86.2784 65.4999 86.5226 65.412 86.8204C65.329 87.1134 65.2875 87.4674 65.2875 87.8824ZM75.8783 83.1803C75.517 83.1803 75.2045 83.1412 74.9408 83.0631C74.682 82.985 74.4696 82.8775 74.3036 82.7408C74.1376 82.5992 74.0155 82.4381 73.9374 82.2574C73.8593 82.0719 73.8202 81.8717 73.8202 81.6568C73.8202 81.4469 73.8593 81.2491 73.9374 81.0636C74.0155 80.878 74.1376 80.7169 74.3036 80.5802C74.4696 80.4386 74.682 80.3287 74.9408 80.2506C75.2045 80.1725 75.517 80.1334 75.8783 80.1334C76.2445 80.1334 76.557 80.1725 76.8158 80.2506C77.0746 80.3287 77.287 80.4386 77.453 80.5802C77.6239 80.7169 77.7484 80.878 77.8265 81.0636C77.9047 81.2491 77.9437 81.4469 77.9437 81.6568C77.9437 81.8717 77.9047 82.0719 77.8265 82.2574C77.7484 82.4381 77.6239 82.5992 77.453 82.7408C77.287 82.8775 77.0746 82.985 76.8158 83.0631C76.557 83.1412 76.2445 83.1803 75.8783 83.1803ZM73.8934 84.3888H77.8705V91.6471H73.8934V84.3888ZM79.4525 88.0216C79.4525 87.4454 79.5697 86.9254 79.8041 86.4615C80.0433 85.9977 80.3851 85.6021 80.8295 85.275C81.2787 84.9478 81.8256 84.6964 82.4701 84.5206C83.1146 84.3399 83.847 84.2496 84.6674 84.2496C85.4877 84.2496 86.2201 84.3399 86.8646 84.5206C87.5092 84.6964 88.0536 84.9478 88.4979 85.275C88.9471 85.6021 89.2889 85.9977 89.5233 86.4615C89.7626 86.9254 89.8822 87.4454 89.8822 88.0216C89.8822 88.5929 89.7626 89.1104 89.5233 89.5743C89.2889 90.0382 88.9471 90.4337 88.4979 90.7608C88.0536 91.088 87.5092 91.3419 86.8646 91.5226C86.2201 91.6983 85.4877 91.7862 84.6674 91.7862C83.847 91.7862 83.1146 91.6983 82.4701 91.5226C81.8256 91.3419 81.2787 91.088 80.8295 90.7608C80.3851 90.4337 80.0433 90.0382 79.8041 89.5743C79.5697 89.1104 79.4525 88.5929 79.4525 88.0216ZM84.6674 90.4459C84.848 90.4459 85.0092 90.4093 85.1508 90.336C85.2924 90.2628 85.4095 90.1358 85.5023 89.9552C85.5951 89.7696 85.6659 89.5206 85.7147 89.2081C85.7635 88.8956 85.788 88.5001 85.788 88.0216C85.788 87.5382 85.7635 87.1402 85.7147 86.8277C85.6659 86.5152 85.5951 86.2686 85.5023 86.088C85.4095 85.9024 85.2924 85.773 85.1508 85.6998C85.0092 85.6266 84.848 85.5899 84.6674 85.5899C84.4818 85.5899 84.3182 85.6266 84.1766 85.6998C84.0399 85.773 83.9252 85.9024 83.8324 86.088C83.7396 86.2686 83.6688 86.5152 83.62 86.8277C83.5712 87.1402 83.5468 87.5382 83.5468 88.0216C83.5468 88.5001 83.5712 88.8956 83.62 89.2081C83.6688 89.5206 83.7396 89.7696 83.8324 89.9552C83.9252 90.1358 84.0399 90.2628 84.1766 90.336C84.3182 90.4093 84.4818 90.4459 84.6674 90.4459Z" fill="black"/>
<g clip-path="url(#clip0_123_9)">
<path d="M61.3528 43.1078C61.2185 44.5924 61.6896 46.0924 62.6951 47.1898C63.7006 48.2872 65.1201 48.8684 66.4109 49.384C67.8199 49.9435 69.0384 50.4012 70.3542 51.1916C71.6081 51.9444 72.7173 52.8807 73.6448 54.0367C77.4588 58.764 77.106 65.7016 72.8418 70.0048C68.5763 74.3073 61.8141 74.5389 57.28 70.5427C56.1242 69.5206 55.0979 68.2083 54.2531 66.9232C52.9686 58.3713 55.4611 49.4112 61.3528 43.1078Z" fill="#85A8FF"/>
<path d="M66.7838 38.7195C68.1984 37.8809 69.5198 37.2893 71.0591 36.7402C72.5412 36.2135 74.0491 35.7774 75.573 35.3853C77.0913 34.9925 78.6249 34.6591 80.1586 34.3256C81.6929 33.9921 83.2161 33.6698 84.6983 33.0942C91.958 30.2652 96.3529 22.6655 95.2904 14.7645C94.2278 6.86417 87.9938 0.77078 80.2574 0.0661405C76.7441 -0.251296 73.3498 0.598457 70.2094 2.08797C67.0795 3.5726 64.2134 5.68093 61.7208 8.09554C56.6843 12.9631 52.963 19.2128 50.6931 25.8657C48.408 32.5612 47.5528 39.7632 48.0921 46.8249C48.3614 50.3425 48.9834 53.8811 49.9785 57.264C50.9527 60.5821 52.3625 64.0084 54.2586 66.9127C53.4396 61.4751 54.1445 55.8548 56.3267 50.8211C58.5026 45.798 62.1098 41.4948 66.7838 38.7195Z" fill="#0057CC"/>
<path d="M34.4989 43.534C34.0013 42.964 33.4836 42.4206 32.9082 41.9371C33.6235 43.1957 33.6959 44.621 33.3953 45.9919C33.0946 47.3579 32.4315 48.6221 31.5923 49.7083C30.7267 50.8218 29.7108 51.7092 28.6072 52.5485C27.6434 53.2797 26.2392 54.2159 25.368 55.0922C22.8087 57.6736 22.2847 61.7074 24.0988 64.8804C25.9122 68.059 29.5918 69.5652 33.0376 68.5327C34.9393 67.962 36.5516 66.6769 37.8312 65.209C39.1269 63.7244 40.179 61.96 41.0078 60.1747C40.7955 54.0164 38.4944 48.1323 34.4989 43.534Z" fill="#85A8FF"/>
<path d="M18.2537 9.25645C23.5233 9.25087 28.6384 12.2571 32.3431 15.6296C36.2767 19.2114 39.3238 23.772 41.3292 28.731C43.3451 33.7165 44.3144 39.1053 44.2775 44.4891C44.2413 49.7223 43.2358 55.3908 41.0077 60.1726C40.7955 54.0143 38.4944 48.1247 34.4995 43.5271C33.7995 42.7254 33.0689 41.9992 32.1984 41.3859C31.3279 40.7727 30.4108 40.3213 29.4206 39.9613C27.498 39.2615 25.3269 38.9336 23.3264 38.7076C21.2639 38.4711 19.191 38.3316 17.1341 38.019C15.0201 37.6967 13.1232 37.2237 11.2368 36.099C5.74383 32.8402 3.08014 26.2034 4.72303 19.9216C6.36591 13.6343 11.916 9.26133 18.2537 9.25645Z" fill="#0057CC"/>
</g>
<defs>
<clipPath id="clip0_123_9">
<rect width="91.2059" height="73.3924" fill="white" transform="translate(4.24219)"/>
</clipPath>
</defs>
</svg>
