<svg width="100" height="121" viewBox="0 0 100 121" fill="none" xmlns="http://www.w3.org/2000/svg">
<path d="M98.9536 6.21054C97.8925 5.6902 97.4361 6.68131 96.8155 7.18512C96.6058 7.35029 96.4247 7.56502 96.2479 7.75497C94.6975 9.42335 92.8882 10.5135 90.5282 10.3814C87.07 10.1915 84.1217 11.2816 81.5149 13.9412C80.9595 10.6622 79.1174 8.70478 76.3173 7.44941C74.8495 6.79693 73.3648 6.14444 72.3412 4.72391C71.6216 3.7163 71.4284 2.59303 71.0662 1.48631C70.8401 0.81733 70.6098 0.13182 69.8452 0.0162081C69.0144 -0.115938 68.6898 0.586063 68.3647 1.17245C67.0573 3.56762 66.5554 6.21053 66.6009 8.88648C66.7158 14.899 69.2447 19.6892 74.2613 23.1005C74.8331 23.4887 74.9809 23.8849 74.7998 24.4549C74.4588 25.6275 74.0516 26.7676 73.6899 27.9402C73.4638 28.6921 73.1223 28.857 72.3248 28.5267C69.5698 27.3706 67.1887 25.661 65.0876 23.5876C61.5187 20.1189 58.2908 16.2868 54.265 13.2887C53.3193 12.5866 52.3778 11.9341 51.3989 11.3147C47.291 7.30073 51.9378 4.00537 53.0107 3.61718C54.1375 3.21249 53.4014 1.8084 49.7664 1.82494C46.1356 1.84147 42.8092 3.06381 38.5737 4.69088C37.9531 4.93864 37.3034 5.12034 36.6331 5.26073C32.7883 4.53395 28.7958 4.36874 24.6221 4.83952C16.7683 5.72327 10.4935 9.45638 5.87987 15.8322C0.341094 23.4887 -0.962387 32.1938 0.633059 41.2787C2.31074 50.8427 7.16693 58.7715 14.6342 64.966C22.3729 71.3835 31.2877 74.53 41.4563 73.927C47.6325 73.5718 54.5118 72.7379 62.2669 66.1386C64.224 67.1134 66.2758 67.5016 69.6848 67.7988C72.3084 68.0466 74.8331 67.6669 76.7902 67.2618C79.8534 66.6097 79.6399 63.76 78.5338 63.2314C69.5534 59.0277 71.5227 60.7374 69.7298 59.358C74.2941 53.9237 81.1734 48.2827 83.8627 30.0135C84.0724 28.5597 83.8914 27.6514 83.8627 26.4703C83.8463 25.7599 84.0068 25.4791 84.8207 25.3967C87.07 25.1404 89.2536 24.5209 91.26 23.4062C97.0786 20.2098 99.4223 14.9654 99.9772 8.67175C100.06 7.7137 99.9608 6.71434 98.9536 6.21054ZM48.2535 62.8432C39.5485 55.9636 35.3295 53.7004 33.5863 53.7998C31.9576 53.8903 32.2498 55.7653 32.6073 56.9878C32.9816 58.1934 33.4709 59.0277 34.1576 60.0849C34.6305 60.7868 34.9556 61.8356 33.6848 62.6119C30.8805 64.363 26.008 62.0258 25.7777 61.91C20.1072 58.5571 15.3661 54.1216 12.0231 48.0594C8.79935 42.2204 6.92431 35.9599 6.61593 29.2782C6.5337 27.6594 7.00655 27.0894 8.602 26.8006C10.7032 26.4124 12.8743 26.3299 14.9755 26.6352C23.8573 27.9402 31.4191 31.9376 37.7556 38.256C41.3742 41.8652 44.1128 46.1683 46.9335 50.372C49.931 54.8405 53.1589 59.0937 57.2668 62.5789C58.714 63.8015 59.8736 64.7347 60.9797 65.4202C57.6411 65.7919 52.065 65.8744 48.2535 62.8432ZM52.4229 35.8609C52.4229 35.1421 52.9943 34.5725 53.7139 34.5725C53.8743 34.5725 54.0225 34.6054 54.1539 34.6549C54.3307 34.7209 54.4954 34.8203 54.6229 34.9687C54.8528 35.192 54.9846 35.5222 54.9846 35.8609C54.9846 36.5794 54.4132 37.1494 53.6974 37.1494C52.9778 37.1494 52.4229 36.5794 52.4229 35.8609ZM65.3794 42.5507C64.5491 42.8894 63.7183 43.1867 62.9208 43.2197C61.6829 43.2776 60.33 42.7735 59.594 42.1545C58.455 41.1962 57.6411 40.6592 57.2954 38.9745C57.1514 38.2561 57.2339 37.1494 57.3611 36.5134C57.6575 35.1421 57.3283 34.2667 56.3703 33.4658C55.5851 32.8133 54.5939 32.6399 53.5004 32.6399C53.0932 32.6399 52.7189 32.4581 52.4393 32.3093C51.9829 32.078 51.6086 31.5084 51.9665 30.8064C52.0814 30.5831 52.6368 30.03 52.7682 29.9306C54.2486 29.0803 55.959 29.361 57.5422 29.997C59.01 30.5996 60.1161 31.7063 61.7115 33.2675C63.344 35.159 63.6362 35.6876 64.5655 37.0995C65.2973 38.2146 65.9676 39.3542 66.424 40.6592C66.6994 41.4686 66.3419 42.1375 65.3794 42.5507Z" fill="#4D6BFE"/>
<path d="M3.59375 80.5234C3.59375 80.5234 3.75 80.513 4.0625 80.4922C4.375 80.4661 4.78385 80.4349 5.28906 80.3984C5.79427 80.362 6.34375 80.3281 6.9375 80.2969C7.53125 80.2604 8.11458 80.2318 8.6875 80.2109C9.26562 80.1849 9.77604 80.1719 10.2188 80.1719C11.2396 80.1719 12.125 80.3646 12.875 80.75C13.625 81.1354 14.2448 81.651 14.7344 82.2969C15.224 82.9375 15.5885 83.6484 15.8281 84.4297C16.0677 85.2057 16.1875 85.987 16.1875 86.7734C16.1875 87.7526 16.0208 88.6276 15.6875 89.3984C15.3542 90.1693 14.888 90.8229 14.2891 91.3594C13.6953 91.8958 12.9948 92.3047 12.1875 92.5859C11.3854 92.862 10.5156 93 9.57812 93H3.59375V80.5234ZM8.45312 89.2422C8.72917 89.0078 9.02604 88.7734 9.34375 88.5391C9.66146 88.3047 9.96094 88.0547 10.2422 87.7891C10.5286 87.5234 10.7604 87.2266 10.9375 86.8984C11.1198 86.5651 11.2109 86.1823 11.2109 85.75C11.2109 85.4635 11.151 85.1719 11.0312 84.875C10.9115 84.5781 10.737 84.3307 10.5078 84.1328C10.2839 83.9297 10.0052 83.8281 9.67188 83.8281C9.43229 83.8281 9.20573 83.8932 8.99219 84.0234C8.78385 84.1536 8.60417 84.3073 8.45312 84.4844V89.2422ZM22.4062 93.2891C21.776 93.2891 21.1615 93.1901 20.5625 92.9922C19.9635 92.7943 19.4219 92.5 18.9375 92.1094C18.4531 91.7135 18.0677 91.2266 17.7812 90.6484C17.4948 90.0703 17.3516 89.3984 17.3516 88.6328C17.3516 87.6797 17.5208 86.8464 17.8594 86.1328C18.2031 85.4141 18.6667 84.8177 19.25 84.3438C19.8333 83.8646 20.4948 83.5052 21.2344 83.2656C21.974 83.026 22.7422 82.9062 23.5391 82.9062C24.5495 82.9062 25.3698 83.0599 26 83.3672C26.6354 83.6745 27.1016 84.0703 27.3984 84.5547C27.6953 85.0391 27.8438 85.5495 27.8438 86.0859C27.8438 86.6641 27.6589 87.224 27.2891 87.7656C26.9193 88.3073 26.375 88.7526 25.6562 89.1016C24.9427 89.4505 24.0625 89.625 23.0156 89.625C22.9167 89.625 22.7839 89.625 22.6172 89.625C22.4557 89.6198 22.3151 89.6146 22.1953 89.6094C22.1953 89.9375 22.2734 90.1745 22.4297 90.3203C22.5859 90.4661 22.7812 90.5573 23.0156 90.5938C23.2552 90.6302 23.4948 90.6484 23.7344 90.6484C23.9479 90.6484 24.2474 90.6146 24.6328 90.5469C25.0234 90.474 25.4453 90.3438 25.8984 90.1562C26.3516 89.9688 26.7812 89.7005 27.1875 89.3516L27.6719 91.7812C27.0573 92.3125 26.2786 92.6979 25.3359 92.9375C24.3984 93.1719 23.4219 93.2891 22.4062 93.2891ZM22.1953 87.8281L23.9062 87.4453L24.0547 86.25C24.0547 86.2188 24.0573 86.1901 24.0625 86.1641C24.0677 86.1328 24.0703 86.1016 24.0703 86.0703C24.0703 85.612 23.8568 85.3828 23.4297 85.3828C23.0599 85.4141 22.8021 85.5417 22.6562 85.7656C22.5104 85.9844 22.4167 86.2734 22.375 86.6328C22.3333 86.987 22.2734 87.3854 22.1953 87.8281ZM33.8281 93.2891C33.1979 93.2891 32.5833 93.1901 31.9844 92.9922C31.3854 92.7943 30.8438 92.5 30.3594 92.1094C29.875 91.7135 29.4896 91.2266 29.2031 90.6484C28.9167 90.0703 28.7734 89.3984 28.7734 88.6328C28.7734 87.6797 28.9427 86.8464 29.2812 86.1328C29.625 85.4141 30.0885 84.8177 30.6719 84.3438C31.2552 83.8646 31.9167 83.5052 32.6562 83.2656C33.3958 83.026 34.1641 82.9062 34.9609 82.9062C35.9714 82.9062 36.7917 83.0599 37.4219 83.3672C38.0573 83.6745 38.5234 84.0703 38.8203 84.5547C39.1172 85.0391 39.2656 85.5495 39.2656 86.0859C39.2656 86.6641 39.0807 87.224 38.7109 87.7656C38.3411 88.3073 37.7969 88.7526 37.0781 89.1016C36.3646 89.4505 35.4844 89.625 34.4375 89.625C34.3385 89.625 34.2057 89.625 34.0391 89.625C33.8776 89.6198 33.737 89.6146 33.6172 89.6094C33.6172 89.9375 33.6953 90.1745 33.8516 90.3203C34.0078 90.4661 34.2031 90.5573 34.4375 90.5938C34.6771 90.6302 34.9167 90.6484 35.1562 90.6484C35.3698 90.6484 35.6693 90.6146 36.0547 90.5469C36.4453 90.474 36.8672 90.3438 37.3203 90.1562C37.7734 89.9688 38.2031 89.7005 38.6094 89.3516L39.0938 91.7812C38.4792 92.3125 37.7005 92.6979 36.7578 92.9375C35.8203 93.1719 34.8438 93.2891 33.8281 93.2891ZM33.6172 87.8281L35.3281 87.4453L35.4766 86.25C35.4766 86.2188 35.4792 86.1901 35.4844 86.1641C35.4896 86.1328 35.4922 86.1016 35.4922 86.0703C35.4922 85.612 35.2786 85.3828 34.8516 85.3828C34.4818 85.4141 34.224 85.5417 34.0781 85.7656C33.9323 85.9844 33.8385 86.2734 33.7969 86.6328C33.7552 86.987 33.6953 87.3854 33.6172 87.8281ZM48.2656 82.9219C49.1406 82.9219 49.8698 83.099 50.4531 83.4531C51.0417 83.8073 51.4818 84.2812 51.7734 84.875C52.0703 85.4635 52.2188 86.1198 52.2188 86.8438C52.2188 87.3438 52.1458 87.8724 52 88.4297C51.8542 88.987 51.6198 89.5339 51.2969 90.0703C50.9792 90.6016 50.5599 91.0859 50.0391 91.5234C49.5182 91.9557 48.888 92.3047 48.1484 92.5703C47.4089 92.8359 46.5417 92.9792 45.5469 93V95.5312H40.9062V83.2891H43.4688L44.5547 84.7891C45.1797 84.1172 45.8177 83.638 46.4688 83.3516C47.125 83.0651 47.724 82.9219 48.2656 82.9219ZM47.4844 86.1484C47.2552 86.1484 47.0156 86.2396 46.7656 86.4219C46.5156 86.599 46.2839 86.8307 46.0703 87.1172C45.8568 87.3984 45.6823 87.6953 45.5469 88.0078V90.25C45.6823 90.1562 45.901 90.013 46.2031 89.8203C46.5052 89.6276 46.8229 89.3906 47.1562 89.1094C47.4896 88.8229 47.7734 88.4974 48.0078 88.1328C48.2422 87.7682 48.3594 87.3698 48.3594 86.9375C48.3594 86.724 48.2891 86.5391 48.1484 86.3828C48.013 86.2266 47.7917 86.1484 47.4844 86.1484ZM53.6016 88.8594C53.6328 88.8646 53.7786 88.9115 54.0391 89C54.3047 89.0833 54.625 89.1797 55 89.2891C55.375 89.3932 55.75 89.487 56.125 89.5703C56.5052 89.6484 56.8281 89.6875 57.0938 89.6875C57.3229 89.6875 57.5104 89.6536 57.6562 89.5859C57.8021 89.5182 57.875 89.3932 57.875 89.2109C57.875 89.013 57.7708 88.8333 57.5625 88.6719C57.3542 88.5104 57.0859 88.3438 56.7578 88.1719C56.4349 88 56.0885 87.8047 55.7188 87.5859C55.3542 87.3672 55.0078 87.1042 54.6797 86.7969C54.3568 86.4896 54.0911 86.1224 53.8828 85.6953C53.6745 85.263 53.5703 84.7474 53.5703 84.1484C53.5703 83.4141 53.724 82.7943 54.0312 82.2891C54.3385 81.7786 54.75 81.3698 55.2656 81.0625C55.7865 80.75 56.3698 80.5234 57.0156 80.3828C57.6667 80.2422 58.3333 80.1719 59.0156 80.1719C59.5938 80.1719 60.1406 80.2031 60.6562 80.2656C61.1719 80.3281 61.6068 80.3958 61.9609 80.4688C62.3203 80.5417 62.5469 80.5911 62.6406 80.6172V84.2031C62.6406 84.2031 62.5312 84.1797 62.3125 84.1328C62.099 84.0859 61.8281 84.0339 61.5 83.9766C61.1771 83.9193 60.8411 83.8672 60.4922 83.8203C60.1484 83.7734 59.8464 83.75 59.5859 83.75C59.3464 83.75 59.1667 83.7917 59.0469 83.875C58.9271 83.9583 58.8672 84.0573 58.8672 84.1719C58.8672 84.2656 58.9193 84.3698 59.0234 84.4844C59.1276 84.5938 59.2526 84.6797 59.3984 84.7422C59.9453 84.9818 60.4609 85.2266 60.9453 85.4766C61.4297 85.7266 61.8568 86.0156 62.2266 86.3438C62.5964 86.6719 62.8854 87.0729 63.0938 87.5469C63.3073 88.0156 63.4141 88.5911 63.4141 89.2734C63.4141 90.0859 63.2083 90.7943 62.7969 91.3984C62.3906 92.0026 61.8021 92.4714 61.0312 92.8047C60.2656 93.138 59.3411 93.3047 58.2578 93.3047C57.3255 93.3047 56.5573 93.2604 55.9531 93.1719C55.349 93.0833 54.875 92.9844 54.5312 92.875C54.1875 92.7604 53.9453 92.6589 53.8047 92.5703C53.6693 92.4818 53.6016 92.4375 53.6016 92.4375V88.8594ZM69.75 93.2891C69.1198 93.2891 68.5052 93.1901 67.9062 92.9922C67.3073 92.7943 66.7656 92.5 66.2812 92.1094C65.7969 91.7135 65.4115 91.2266 65.125 90.6484C64.8385 90.0703 64.6953 89.3984 64.6953 88.6328C64.6953 87.6797 64.8646 86.8464 65.2031 86.1328C65.5469 85.4141 66.0104 84.8177 66.5938 84.3438C67.1771 83.8646 67.8385 83.5052 68.5781 83.2656C69.3177 83.026 70.0859 82.9062 70.8828 82.9062C71.8932 82.9062 72.7135 83.0599 73.3438 83.3672C73.9792 83.6745 74.4453 84.0703 74.7422 84.5547C75.0391 85.0391 75.1875 85.5495 75.1875 86.0859C75.1875 86.6641 75.0026 87.224 74.6328 87.7656C74.263 88.3073 73.7188 88.7526 73 89.1016C72.2865 89.4505 71.4062 89.625 70.3594 89.625C70.2604 89.625 70.1276 89.625 69.9609 89.625C69.7995 89.6198 69.6589 89.6146 69.5391 89.6094C69.5391 89.9375 69.6172 90.1745 69.7734 90.3203C69.9297 90.4661 70.125 90.5573 70.3594 90.5938C70.599 90.6302 70.8385 90.6484 71.0781 90.6484C71.2917 90.6484 71.5911 90.6146 71.9766 90.5469C72.3672 90.474 72.7891 90.3438 73.2422 90.1562C73.6953 89.9688 74.125 89.7005 74.5312 89.3516L75.0156 91.7812C74.401 92.3125 73.6224 92.6979 72.6797 92.9375C71.7422 93.1719 70.7656 93.2891 69.75 93.2891ZM69.5391 87.8281L71.25 87.4453L71.3984 86.25C71.3984 86.2188 71.401 86.1901 71.4062 86.1641C71.4115 86.1328 71.4141 86.1016 71.4141 86.0703C71.4141 85.612 71.2005 85.3828 70.7734 85.3828C70.4036 85.4141 70.1458 85.5417 70 85.7656C69.8542 85.9844 69.7604 86.2734 69.7188 86.6328C69.6771 86.987 69.6172 87.3854 69.5391 87.8281ZM81.1719 93.2891C80.5417 93.2891 79.9271 93.1901 79.3281 92.9922C78.7292 92.7943 78.1875 92.5 77.7031 92.1094C77.2188 91.7135 76.8333 91.2266 76.5469 90.6484C76.2604 90.0703 76.1172 89.3984 76.1172 88.6328C76.1172 87.6797 76.2865 86.8464 76.625 86.1328C76.9688 85.4141 77.4323 84.8177 78.0156 84.3438C78.599 83.8646 79.2604 83.5052 80 83.2656C80.7396 83.026 81.5078 82.9062 82.3047 82.9062C83.3151 82.9062 84.1354 83.0599 84.7656 83.3672C85.401 83.6745 85.8672 84.0703 86.1641 84.5547C86.4609 85.0391 86.6094 85.5495 86.6094 86.0859C86.6094 86.6641 86.4245 87.224 86.0547 87.7656C85.6849 88.3073 85.1406 88.7526 84.4219 89.1016C83.7083 89.4505 82.8281 89.625 81.7812 89.625C81.6823 89.625 81.5495 89.625 81.3828 89.625C81.2214 89.6198 81.0807 89.6146 80.9609 89.6094C80.9609 89.9375 81.0391 90.1745 81.1953 90.3203C81.3516 90.4661 81.5469 90.5573 81.7812 90.5938C82.0208 90.6302 82.2604 90.6484 82.5 90.6484C82.7135 90.6484 83.013 90.6146 83.3984 90.5469C83.7891 90.474 84.2109 90.3438 84.6641 90.1562C85.1172 89.9688 85.5469 89.7005 85.9531 89.3516L86.4375 91.7812C85.8229 92.3125 85.0443 92.6979 84.1016 92.9375C83.1641 93.1719 82.1875 93.2891 81.1719 93.2891ZM80.9609 87.8281L82.6719 87.4453L82.8203 86.25C82.8203 86.2188 82.8229 86.1901 82.8281 86.1641C82.8333 86.1328 82.8359 86.1016 82.8359 86.0703C82.8359 85.612 82.6224 85.3828 82.1953 85.3828C81.8255 85.4141 81.5677 85.5417 81.4219 85.7656C81.276 85.9844 81.1823 86.2734 81.1406 86.6328C81.099 86.987 81.0391 87.3854 80.9609 87.8281ZM92.3125 79.8516V86.1875L94.1562 83.2891H98.7578L95.7656 87.5312L99.2422 93H94.4766L92.5234 89.8516C92.5026 89.888 92.4766 89.9323 92.4453 89.9844C92.4193 90.0312 92.401 90.0755 92.3906 90.1172V93H88.2656V79.8516H92.3125Z" fill="black"/>
<path d="M32.9922 120V107.523C32.9922 107.523 33.1536 107.513 33.4766 107.492C33.8047 107.466 34.2318 107.435 34.7578 107.398C35.2891 107.362 35.8672 107.328 36.4922 107.297C37.1224 107.26 37.7448 107.232 38.3594 107.211C38.9792 107.185 39.5312 107.172 40.0156 107.172C41.026 107.172 41.8828 107.305 42.5859 107.57C43.2891 107.831 43.8568 108.177 44.2891 108.609C44.7214 109.042 45.0365 109.518 45.2344 110.039C45.4375 110.56 45.5391 111.081 45.5391 111.602C45.5391 112.513 45.3073 113.297 44.8438 113.953C44.3802 114.604 43.7891 115.143 43.0703 115.57L46.4609 120H40.2891L38.0938 116.383V120H32.9922ZM38.0625 114.109C39.0729 113.734 39.7969 113.328 40.2344 112.891C40.6771 112.448 40.8984 111.974 40.8984 111.469C40.8984 111.047 40.8203 110.758 40.6641 110.602C40.5078 110.445 40.3125 110.367 40.0781 110.367C39.9271 110.367 39.7708 110.393 39.6094 110.445C39.4479 110.492 39.2786 110.552 39.1016 110.625L38.0625 111.055V114.109ZM47.4609 107.523H59.2734V111.57H55.7969V120H50.9375V111.57H47.4609V107.523ZM60.6641 107.523H65.5234V116.242H69.7188V120H60.6641V107.523Z" fill="#4D6BFE"/>
</svg>
