<svg width="95" height="72" viewBox="0 0 95 72" fill="none" xmlns="http://www.w3.org/2000/svg">
<path d="M11.748 63.4053L10.5723 60.8418H14.7354L19.7119 71.0068H15.248L14.4961 69.3799H10.4902L9.74512 71.0068H8.01562L11.748 63.4053ZM13.7783 67.8145L12.4932 65.0254L11.2148 67.8145H13.7783ZM21.1064 60.8418H25.0645L25.0576 71H21.1064V60.8418ZM32.0576 68.7441C32.5407 68.9902 33.0465 69.1748 33.5752 69.2979C34.1038 69.4209 34.596 69.4824 35.0518 69.4824C35.5758 69.4824 35.9587 69.4072 36.2002 69.2568C36.4463 69.1064 36.5693 68.9014 36.5693 68.6416C36.5693 68.5596 36.5534 68.4753 36.5215 68.3887C36.4941 68.3021 36.4372 68.2178 36.3506 68.1357C36.2686 68.0492 36.1523 67.9648 36.002 67.8828C35.8561 67.7962 35.6647 67.7119 35.4277 67.6299L34.2041 67.2129C33.3291 66.9121 32.6706 66.5065 32.2285 65.9961C31.7865 65.4811 31.5654 64.8704 31.5654 64.1641C31.5654 63.7083 31.6611 63.2708 31.8525 62.8516C32.0439 62.4277 32.3333 62.0563 32.7207 61.7373C33.1081 61.4137 33.5957 61.1562 34.1836 60.9648C34.776 60.7734 35.4688 60.6777 36.2617 60.6777C36.6536 60.6777 37.0296 60.7005 37.3896 60.7461C37.7497 60.7917 38.0869 60.8509 38.4014 60.9238C38.7204 60.9967 39.012 61.0811 39.2764 61.1768C39.5407 61.2679 39.7731 61.359 39.9736 61.4502L39.2354 62.7832C39.0895 62.6921 38.9346 62.6123 38.7705 62.5439C38.611 62.4756 38.4492 62.4186 38.2852 62.373C38.1257 62.3275 37.9684 62.2933 37.8135 62.2705C37.6585 62.2477 37.5173 62.2363 37.3896 62.2363C37.1709 62.2363 36.9795 62.266 36.8154 62.3252C36.6514 62.3799 36.5124 62.4551 36.3984 62.5508C36.2891 62.6419 36.2048 62.7467 36.1455 62.8652C36.0908 62.9792 36.0635 63.0931 36.0635 63.207C36.0635 63.3073 36.0863 63.4053 36.1318 63.501C36.182 63.5921 36.264 63.6833 36.3779 63.7744C36.4964 63.861 36.6491 63.9499 36.8359 64.041C37.0273 64.1276 37.2643 64.2188 37.5469 64.3145L38.3672 64.5879C39.2559 64.8841 39.9349 65.292 40.4043 65.8115C40.8737 66.3311 41.1084 66.96 41.1084 67.6982C41.1084 68.1995 40.9945 68.6621 40.7666 69.0859C40.5433 69.5098 40.2083 69.8766 39.7617 70.1865C39.3151 70.4919 38.7591 70.7311 38.0938 70.9043C37.4329 71.0729 36.665 71.1572 35.79 71.1572C35.3708 71.1572 34.9652 71.1344 34.5732 71.0889C34.1859 71.0479 33.8053 70.984 33.4316 70.8975C33.0625 70.8109 32.6979 70.7015 32.3379 70.5693C31.9779 70.4372 31.6178 70.2822 31.2578 70.1045L32.0576 68.7441ZM43.0566 65.3535H42.291V64.2256H43.0566V61.9697H46.7686V64.2256H48.5527L47.8555 65.3535H46.7686V68.4229C46.7686 68.8877 46.8711 69.2454 47.0762 69.4961C47.2858 69.7467 47.5843 69.8721 47.9717 69.8721L47.5479 70.8086C47.3109 70.9089 47.0579 70.9863 46.7891 71.041C46.5247 71.1003 46.2171 71.1299 45.8662 71.1299C45.374 71.1299 44.9502 71.0684 44.5947 70.9453C44.2393 70.8177 43.9476 70.6377 43.7197 70.4053C43.4919 70.1729 43.3232 69.888 43.2139 69.5508C43.109 69.2135 43.0566 68.833 43.0566 68.4092V65.3535ZM49.585 64.2188H53.2969V68.3613C53.2969 68.5436 53.3128 68.6963 53.3447 68.8193C53.3766 68.9424 53.4245 69.0426 53.4883 69.1201C53.5566 69.193 53.6387 69.2477 53.7344 69.2842C53.8301 69.3161 53.944 69.332 54.0762 69.332C54.2402 69.332 54.3838 69.307 54.5068 69.2568C54.6299 69.2021 54.7552 69.1087 54.8828 68.9766V64.2188H58.5947V70.9932H55.3203L54.9922 70.0088C54.5775 70.4144 54.1286 70.7038 53.6455 70.877C53.1624 71.0456 52.6702 71.1299 52.1689 71.1299C51.3441 71.1299 50.7061 70.9089 50.2549 70.4668C49.8083 70.0202 49.585 69.3343 49.585 68.4092V64.2188ZM60.0645 67.6162C60.0645 67.083 60.1556 66.5999 60.3379 66.167C60.5247 65.734 60.7913 65.3649 61.1377 65.0596C61.484 64.7497 61.9033 64.5127 62.3955 64.3486C62.8923 64.18 63.4482 64.0957 64.0635 64.0957C64.5329 64.0957 64.9544 64.1527 65.3281 64.2666C65.7018 64.376 66.0231 64.5218 66.292 64.7041V59.7139H70.0039V71H66.5859L66.3057 70.1523C66.1781 70.2754 66.0254 70.3962 65.8477 70.5146C65.6699 70.6331 65.474 70.738 65.2598 70.8291C65.0456 70.9202 64.8132 70.9932 64.5625 71.0479C64.3164 71.1025 64.0566 71.1299 63.7832 71.1299C63.2682 71.1299 62.7852 71.0547 62.334 70.9043C61.8828 70.7539 61.4886 70.5329 61.1514 70.2412C60.8141 69.945 60.5475 69.5781 60.3516 69.1406C60.1602 68.6986 60.0645 68.1904 60.0645 67.6162ZM63.8926 67.4863C63.8926 67.8783 63.929 68.2132 64.002 68.4912C64.0794 68.7692 64.1842 68.9971 64.3164 69.1748C64.4486 69.348 64.6058 69.4756 64.7881 69.5576C64.9704 69.6396 65.1709 69.6807 65.3896 69.6807C65.5628 69.6807 65.7246 69.651 65.875 69.5918C66.0299 69.528 66.1689 69.4482 66.292 69.3525V65.6064C66.1781 65.5062 66.0482 65.4287 65.9023 65.374C65.7611 65.3193 65.6221 65.292 65.4854 65.292C65.2575 65.292 65.0456 65.3353 64.8496 65.4219C64.6582 65.5039 64.4896 65.6338 64.3438 65.8115C64.2025 65.9893 64.0908 66.2171 64.0088 66.4951C63.9313 66.7686 63.8926 67.099 63.8926 67.4863ZM73.7773 63.0977C73.4401 63.0977 73.1484 63.0612 72.9023 62.9883C72.6608 62.9154 72.4626 62.8151 72.3076 62.6875C72.1527 62.5553 72.0387 62.4049 71.9658 62.2363C71.8929 62.0632 71.8564 61.8763 71.8564 61.6758C71.8564 61.4798 71.8929 61.2952 71.9658 61.1221C72.0387 60.9489 72.1527 60.7985 72.3076 60.6709C72.4626 60.5387 72.6608 60.4362 72.9023 60.3633C73.1484 60.2904 73.4401 60.2539 73.7773 60.2539C74.1191 60.2539 74.4108 60.2904 74.6523 60.3633C74.8939 60.4362 75.0921 60.5387 75.2471 60.6709C75.4066 60.7985 75.5228 60.9489 75.5957 61.1221C75.6686 61.2952 75.7051 61.4798 75.7051 61.6758C75.7051 61.8763 75.6686 62.0632 75.5957 62.2363C75.5228 62.4049 75.4066 62.5553 75.2471 62.6875C75.0921 62.8151 74.8939 62.9154 74.6523 62.9883C74.4108 63.0612 74.1191 63.0977 73.7773 63.0977ZM71.9248 64.2256H75.6367V71H71.9248V64.2256ZM77.1133 67.6162C77.1133 67.0785 77.2227 66.5931 77.4414 66.1602C77.6647 65.7272 77.9837 65.3581 78.3984 65.0527C78.8177 64.7474 79.3281 64.5127 79.9297 64.3486C80.5312 64.18 81.2148 64.0957 81.9805 64.0957C82.7461 64.0957 83.4297 64.18 84.0312 64.3486C84.6328 64.5127 85.141 64.7474 85.5557 65.0527C85.9749 65.3581 86.2939 65.7272 86.5127 66.1602C86.736 66.5931 86.8477 67.0785 86.8477 67.6162C86.8477 68.1494 86.736 68.6325 86.5127 69.0654C86.2939 69.4984 85.9749 69.8675 85.5557 70.1729C85.141 70.4782 84.6328 70.7152 84.0312 70.8838C83.4297 71.0479 82.7461 71.1299 81.9805 71.1299C81.2148 71.1299 80.5312 71.0479 79.9297 70.8838C79.3281 70.7152 78.8177 70.4782 78.3984 70.1729C77.9837 69.8675 77.6647 69.4984 77.4414 69.0654C77.2227 68.6325 77.1133 68.1494 77.1133 67.6162ZM81.9805 69.8789C82.1491 69.8789 82.2995 69.8447 82.4316 69.7764C82.5638 69.708 82.6732 69.5895 82.7598 69.4209C82.8464 69.2477 82.9124 69.0153 82.958 68.7236C83.0036 68.432 83.0264 68.0628 83.0264 67.6162C83.0264 67.165 83.0036 66.7936 82.958 66.502C82.9124 66.2103 82.8464 65.9801 82.7598 65.8115C82.6732 65.6383 82.5638 65.5176 82.4316 65.4492C82.2995 65.3809 82.1491 65.3467 81.9805 65.3467C81.8073 65.3467 81.6546 65.3809 81.5225 65.4492C81.3949 65.5176 81.2878 65.6383 81.2012 65.8115C81.1146 65.9801 81.0485 66.2103 81.0029 66.502C80.9574 66.7936 80.9346 67.165 80.9346 67.6162C80.9346 68.0628 80.9574 68.432 81.0029 68.7236C81.0485 69.0153 81.1146 69.2477 81.2012 69.4209C81.2878 69.5895 81.3949 69.708 81.5225 69.7764C81.6546 69.8447 81.8073 69.8789 81.9805 69.8789Z" fill="black"/>
<g clip-path="url(#clip0_128_10)">
<path d="M54.8227 29.368C54.7314 30.3794 55.0516 31.4013 55.7351 32.149C56.4187 32.8966 57.3836 33.2925 58.2611 33.6438C59.2189 34.025 60.0472 34.3368 60.9417 34.8753C61.7941 35.3881 62.5481 36.026 63.1786 36.8135C65.7712 40.0341 65.5314 44.7605 62.6327 47.6921C59.7331 50.6233 55.1363 50.7811 52.0541 48.0586C51.2684 47.3623 50.5707 46.4682 49.9965 45.5927C49.1233 39.7665 50.8176 33.6623 54.8227 29.368Z" fill="#85A8FF"/>
<path d="M58.5146 26.3784C59.4762 25.8071 60.3745 25.404 61.4208 25.03C62.4283 24.6711 63.4534 24.3741 64.4893 24.1069C65.5214 23.8394 66.564 23.6122 67.6065 23.385C68.6495 23.1578 69.685 22.9382 70.6925 22.5461C75.6275 20.6187 78.6151 15.4413 77.8928 10.0586C77.1705 4.67635 72.9327 0.525109 67.6737 0.0450595C65.2854 -0.1712 62.978 0.407711 60.8433 1.42247C58.7156 2.4339 56.7672 3.87024 55.0729 5.51525C51.6492 8.83139 49.1194 13.0891 47.5765 17.6215C46.0231 22.1829 45.4417 27.0894 45.8083 31.9004C45.9914 34.2968 46.4142 36.7075 47.0907 39.0122C47.7529 41.2727 48.7112 43.6069 50.0002 45.5856C49.4435 41.8811 49.9226 38.0521 51.406 34.6229C52.8852 31.2007 55.3373 28.2691 58.5146 26.3784Z" fill="#0057CC"/>
<path d="M36.5679 29.6584C36.2297 29.2701 35.8778 28.8998 35.4866 28.5704C35.9729 29.4279 36.0221 30.3989 35.8177 31.3329C35.6134 32.2635 35.1626 33.1247 34.5921 33.8648C34.0037 34.6233 33.3131 35.2279 32.5629 35.7997C31.9077 36.2978 30.9532 36.9357 30.3609 37.5326C28.6212 39.2912 28.265 42.0394 29.4982 44.201C30.7309 46.3665 33.2322 47.3926 35.5746 46.6892C36.8673 46.3004 37.9633 45.4249 38.8332 44.4249C39.714 43.4135 40.4292 42.2114 40.9926 40.9952C40.8483 36.7997 39.284 32.7911 36.5679 29.6584Z" fill="#85A8FF"/>
<path d="M25.5247 6.30613C29.1069 6.30233 32.5841 8.35038 35.1025 10.648C37.7764 13.0881 39.8478 16.1951 41.2111 19.5736C42.5814 22.97 43.2403 26.6412 43.2152 30.3091C43.1906 33.8743 42.5071 37.7361 40.9925 40.9937C40.8482 36.7983 39.284 32.7858 36.5684 29.6536C36.0925 29.1075 35.5958 28.6127 35.0041 28.195C34.4123 27.7772 33.7889 27.4696 33.1158 27.2244C31.8088 26.7477 30.333 26.5243 28.9731 26.3703C27.571 26.2092 26.1619 26.1141 24.7637 25.9012C23.3266 25.6816 22.0372 25.3593 20.7548 24.5932C17.0208 22.373 15.2101 17.8516 16.3269 13.572C17.4437 9.28861 21.2165 6.30945 25.5247 6.30613Z" fill="#0057CC"/>
</g>
<defs>
<clipPath id="clip0_128_10">
<rect width="62" height="50" fill="white" transform="translate(16)"/>
</clipPath>
</defs>
</svg>
