<svg width="96" height="72" viewBox="0 0 96 72" fill="none" xmlns="http://www.w3.org/2000/svg">
<path d="M84.2884 4.19631C83.5668 3.84473 83.2565 4.5144 82.8345 4.85481C82.6919 4.96641 82.5687 5.1115 82.4485 5.23985C81.3942 6.36713 80.1639 7.10372 78.5591 7.01446C76.2075 6.88615 74.2027 7.6227 72.4301 9.41973C72.0524 7.20419 70.7998 5.88161 68.8957 5.03339C67.8976 4.59252 66.888 4.15165 66.192 3.19183C65.7026 2.51101 65.5713 1.75205 65.325 1.00426C65.1712 0.55225 65.0146 0.0890676 64.4947 0.0109515C63.9298 -0.0783365 63.709 0.395989 63.488 0.792196C62.5989 2.41055 62.2576 4.19631 62.2886 6.00438C62.3667 10.0669 64.0864 13.3035 67.4976 15.6084C67.8865 15.8707 67.987 16.1384 67.8638 16.5236C67.6319 17.3159 67.355 18.0862 67.1091 18.8785C66.9553 19.3866 66.7231 19.498 66.1808 19.2748C64.3074 18.4937 62.6883 17.3385 61.2595 15.9376C58.8327 13.5939 56.6377 11.0046 53.9002 8.97885C53.2571 8.50446 52.6169 8.06358 51.9512 7.64507C49.1579 4.93293 52.3177 2.70633 53.0472 2.44404C53.8135 2.1706 53.3129 1.22189 50.8411 1.23307C48.3722 1.24424 46.1102 2.07014 43.2301 3.16951C42.8081 3.33692 42.3663 3.45969 41.9105 3.55455C39.296 3.06348 36.5811 2.95185 33.743 3.26995C28.4024 3.86708 24.1356 6.38945 20.9983 10.6974C17.2319 15.8707 16.3456 21.7526 17.4305 27.891C18.5713 34.3532 21.8735 39.7105 26.9512 43.896C32.2136 48.2321 38.2756 50.3581 45.1903 49.9507C49.3901 49.7107 54.068 49.1472 59.3415 44.6883C60.6723 45.3469 62.0675 45.6092 64.3856 45.81C66.1697 45.9774 67.8865 45.7209 69.2173 45.4472C71.3003 45.0066 71.1551 43.0811 70.4029 42.7239C64.2963 39.8836 65.6354 41.0388 64.4162 40.1068C67.5199 36.4349 72.1979 32.6235 74.0266 20.2794C74.1692 19.2971 74.0461 18.6834 74.0266 17.8853C74.0154 17.4053 74.1246 17.2156 74.678 17.1599C76.2076 16.9868 77.6924 16.5682 79.0567 15.815C83.0134 13.6553 84.6071 10.1118 84.9844 5.85929C85.0407 5.21196 84.9733 4.53672 84.2884 4.19631ZM49.8124 42.4616C43.893 37.8133 41.024 36.2841 39.8387 36.3512C38.7311 36.4124 38.9298 37.6793 39.1729 38.5053C39.4275 39.3199 39.7602 39.8836 40.2271 40.5979C40.5487 41.0722 40.7698 41.7808 39.9056 42.3053C37.9987 43.4885 34.6854 41.9093 34.5288 41.8311C30.6729 39.5656 27.4489 36.5687 25.1757 32.4726C22.9836 28.5273 21.7085 24.2972 21.4988 19.7826C21.4429 18.6888 21.7645 18.3037 22.8494 18.1085C24.2782 17.8462 25.7545 17.7905 27.1833 17.9968C33.2229 18.8785 38.365 21.5795 42.6738 25.8487C45.1344 28.2873 46.9967 31.1948 48.9148 34.0351C50.953 37.0544 53.148 39.9282 55.9414 42.283C56.9255 43.1091 57.714 43.7397 58.4662 44.2028C56.1959 44.454 52.4042 44.5097 49.8124 42.4616ZM52.6475 24.2303C52.6475 23.7447 53.0361 23.3598 53.5254 23.3598C53.6345 23.3598 53.7353 23.382 53.8246 23.4155C53.9448 23.4601 54.0568 23.5272 54.1435 23.6275C54.2999 23.7784 54.3895 24.0015 54.3895 24.2303C54.3895 24.7158 54.0009 25.101 53.5142 25.101C53.0249 25.101 52.6475 24.7158 52.6475 24.2303ZM61.458 28.7505C60.8934 28.9793 60.3284 29.1802 59.7861 29.2025C58.9443 29.2416 58.0244 28.901 57.5239 28.4828C56.7494 27.8353 56.1959 27.4724 55.9608 26.3341C55.8629 25.8487 55.919 25.101 56.0055 24.6712C56.2071 23.7447 55.9832 23.1532 55.3318 22.612C54.7978 22.1712 54.1238 22.054 53.3802 22.054C53.1033 22.054 52.8488 21.9312 52.6587 21.8306C52.3483 21.6743 52.0938 21.2895 52.3372 20.8151C52.4153 20.6643 52.793 20.2905 52.8823 20.2234C53.889 19.6489 55.0521 19.8385 56.1287 20.2682C57.1268 20.6754 57.8789 21.4232 58.9638 22.478C60.0739 23.7561 60.2726 24.1132 60.9045 25.0672C61.4021 25.8207 61.8579 26.5907 62.1683 27.4724C62.3556 28.0193 62.1125 28.4713 61.458 28.7505Z" fill="#4D6BFE"/>
<path d="M0 56.6718C0 56.6718 0.15625 56.6614 0.46875 56.6406C0.78125 56.6145 1.1901 56.5833 1.69531 56.5468C2.20052 56.5104 2.75 56.4765 3.34375 56.4453C3.9375 56.4088 4.52083 56.3802 5.09375 56.3593C5.67187 56.3333 6.18229 56.3203 6.62505 56.3203C7.64585 56.3203 8.53125 56.513 9.28125 56.8984C10.0312 57.2838 10.651 57.7994 11.1406 58.4453C11.6302 59.0859 11.9948 59.7968 12.2344 60.5781C12.474 61.3541 12.5938 62.1354 12.5938 62.9218C12.5938 63.901 12.427 64.776 12.0938 65.5468C11.7605 66.3177 11.2942 66.9713 10.6953 67.5078C10.1015 68.0442 9.40105 68.4531 8.59375 68.7343C7.79165 69.0104 6.92185 69.1484 5.98437 69.1484H0V56.6718ZM4.85937 65.3906C5.13542 65.1562 5.43229 64.9218 5.75 64.6875C6.06771 64.4531 6.36719 64.2031 6.64845 63.9375C6.93485 63.6718 7.16665 63.375 7.34375 63.0468C7.52605 62.7135 7.61715 62.3307 7.61715 61.8984C7.61715 61.6119 7.55725 61.3203 7.43745 61.0234C7.31775 60.7265 7.14325 60.4791 6.91405 60.2812C6.69015 60.0781 6.41145 59.9765 6.07813 59.9765C5.83854 59.9765 5.61198 60.0416 5.39844 60.1718C5.1901 60.302 5.01042 60.4557 4.85937 60.6328V65.3906ZM18.8125 69.4375C18.1823 69.4375 17.5677 69.3385 16.9688 69.1406C16.3698 68.9427 15.8282 68.6484 15.3438 68.2578C14.8593 67.8619 14.474 67.375 14.1875 66.7968C13.9011 66.2187 13.7579 65.5468 13.7579 64.7812C13.7579 63.8281 13.927 62.9948 14.2656 62.2812C14.6093 61.5625 15.073 60.9661 15.6562 60.4922C16.2395 60.013 16.901 59.6536 17.6406 59.414C18.3802 59.1744 19.1485 59.0546 19.9454 59.0546C20.9558 59.0546 21.776 59.2083 22.4062 59.5156C23.0416 59.8229 23.5078 60.2187 23.8046 60.7031C24.1015 61.1875 24.25 61.6979 24.25 62.2343C24.25 62.8125 24.0652 63.3724 23.6954 63.914C23.3256 64.4557 22.7813 64.901 22.0625 65.25C21.349 65.5989 20.4688 65.7734 19.4219 65.7734C19.323 65.7734 19.1902 65.7734 19.0235 65.7734C18.862 65.7682 18.7213 65.763 18.6015 65.7578C18.6015 66.0859 18.6797 66.3229 18.836 66.4687C18.9922 66.6145 19.1875 66.7057 19.4219 66.7422C19.6615 66.7786 19.901 66.7968 20.1406 66.7968C20.3541 66.7968 20.6536 66.763 21.039 66.6953C21.4296 66.6224 21.8515 66.4922 22.3046 66.3046C22.7578 66.1172 23.1874 65.8489 23.5938 65.5L24.0781 67.9296C23.4635 68.4609 22.6848 68.8463 21.7421 69.0859C20.8046 69.3203 19.8282 69.4375 18.8125 69.4375ZM18.6015 63.9765L20.3125 63.5937L20.461 62.3984C20.461 62.3672 20.4635 62.3385 20.4688 62.3125C20.474 62.2812 20.4765 62.25 20.4765 62.2187C20.4765 61.7604 20.2631 61.5312 19.836 61.5312C19.4662 61.5625 19.2084 61.6901 19.0625 61.914C18.9167 62.1328 18.823 62.4218 18.7812 62.7812C18.7395 63.1354 18.6796 63.5338 18.6015 63.9765ZM30.2343 69.4375C29.6041 69.4375 28.9895 69.3385 28.3906 69.1406C27.7916 68.9427 27.25 68.6484 26.7656 68.2578C26.2812 67.8619 25.8959 67.375 25.6094 66.7968C25.323 66.2187 25.1796 65.5468 25.1796 64.7812C25.1796 63.8281 25.349 62.9948 25.6875 62.2812C26.0313 61.5625 26.4947 60.9661 27.0781 60.4922C27.6614 60.013 28.323 59.6536 29.0625 59.414C29.8021 59.1744 30.5703 59.0546 31.3671 59.0546C32.3776 59.0546 33.198 59.2083 33.8282 59.5156C34.4636 59.8229 34.9297 60.2187 35.2266 60.7031C35.5235 61.1875 35.6718 61.6979 35.6718 62.2343C35.6718 62.8125 35.4869 63.3724 35.1171 63.914C34.7473 64.4557 34.2031 64.901 33.4843 65.25C32.7708 65.5989 31.8907 65.7734 30.8438 65.7734C30.7448 65.7734 30.612 65.7734 30.4454 65.7734C30.2839 65.7682 30.1432 65.763 30.0234 65.7578C30.0234 66.0859 30.1016 66.3229 30.2579 66.4687C30.4141 66.6145 30.6093 66.7057 30.8438 66.7422C31.0834 66.7786 31.323 66.7968 31.5625 66.7968C31.7761 66.7968 32.0755 66.763 32.4609 66.6953C32.8515 66.6224 33.2735 66.4922 33.7266 66.3046C34.1797 66.1172 34.6094 65.8489 35.0157 65.5L35.5 67.9296C34.8854 68.4609 34.1068 68.8463 33.1641 69.0859C32.2266 69.3203 31.25 69.4375 30.2343 69.4375ZM30.0234 63.9765L31.7343 63.5937L31.8829 62.3984C31.8829 62.3672 31.8855 62.3385 31.8907 62.3125C31.8959 62.2812 31.8984 62.25 31.8984 62.2187C31.8984 61.7604 31.6849 61.5312 31.2579 61.5312C30.8881 61.5625 30.6302 61.6901 30.4843 61.914C30.3385 62.1328 30.2448 62.4218 30.2032 62.7812C30.1615 63.1354 30.1015 63.5338 30.0234 63.9765ZM44.6718 59.0703C45.5468 59.0703 46.276 59.2474 46.8593 59.6015C47.4479 59.9557 47.888 60.4296 48.1796 61.0234C48.4765 61.6119 48.625 62.2682 48.625 62.9922C48.625 63.4922 48.552 64.0208 48.4062 64.5781C48.2605 65.1354 48.0261 65.6823 47.7032 66.2187C47.3855 66.75 46.9662 67.2343 46.4454 67.6718C45.9245 68.1041 45.2942 68.4531 44.5546 68.7187C43.8151 68.9843 42.948 69.1276 41.9532 69.1484V71.6796H37.3125V59.4375H39.875L40.9609 60.9375C41.5859 60.2656 42.2239 59.7864 42.875 59.5C43.5312 59.2135 44.1302 59.0703 44.6718 59.0703ZM43.8907 62.2968C43.6615 62.2968 43.4218 62.388 43.1718 62.5703C42.9218 62.7474 42.6902 62.9791 42.4766 63.2656C42.2631 63.5468 42.0886 63.8437 41.9532 64.1562V66.3984C42.0886 66.3046 42.3072 66.1614 42.6093 65.9687C42.9114 65.776 43.2292 65.539 43.5625 65.2578C43.8959 64.9713 44.1797 64.6458 44.4141 64.2812C44.6485 63.9166 44.7657 63.5182 44.7657 63.0859C44.7657 62.8724 44.6953 62.6875 44.5546 62.5312C44.4192 62.375 44.198 62.2968 43.8907 62.2968ZM50.0079 65.0078C50.0391 65.013 50.1849 65.0599 50.4454 65.1484C50.711 65.2317 51.0312 65.3281 51.4062 65.4375C51.7812 65.5416 52.1562 65.6354 52.5312 65.7187C52.9114 65.7968 53.2343 65.8359 53.5 65.8359C53.7291 65.8359 53.9167 65.802 54.0625 65.7343C54.2084 65.6666 54.2812 65.5416 54.2812 65.3593C54.2812 65.1614 54.177 64.9817 53.9688 64.8203C53.7605 64.6588 53.4922 64.4922 53.1641 64.3203C52.8412 64.1484 52.4947 63.9531 52.125 63.7343C51.7604 63.5156 51.414 63.2526 51.0859 62.9453C50.763 62.638 50.4974 62.2708 50.2891 61.8437C50.0808 61.4114 49.9766 60.8958 49.9766 60.2968C49.9766 59.5625 50.1303 58.9427 50.4375 58.4375C50.7448 57.927 51.1562 57.5182 51.6718 57.2109C52.1927 56.8984 52.776 56.6718 53.4218 56.5312C54.0729 56.3906 54.7395 56.3203 55.4218 56.3203C56 56.3203 56.5469 56.3515 57.0625 56.414C57.5782 56.4765 58.013 56.5442 58.3671 56.6172C58.7265 56.6901 58.9531 56.7395 59.0468 56.7656V60.3515C59.0468 60.3515 58.9375 60.3281 58.7188 60.2812C58.5053 60.2343 58.2343 60.1823 57.9062 60.125C57.5834 60.0677 57.2473 60.0156 56.8984 59.9687C56.5546 59.9218 56.2526 59.8984 55.9921 59.8984C55.7526 59.8984 55.573 59.9401 55.4532 60.0234C55.3334 60.1067 55.2734 60.2057 55.2734 60.3203C55.2734 60.414 55.3255 60.5182 55.4296 60.6328C55.5338 60.7422 55.6588 60.8281 55.8046 60.8906C56.3515 61.1302 56.8672 61.375 57.3516 61.625C57.836 61.875 58.2631 62.164 58.6329 62.4922C59.0027 62.8203 59.2916 63.2213 59.5 63.6953C59.7135 64.164 59.8204 64.7395 59.8204 65.4218C59.8204 66.2343 59.6146 66.9427 59.2032 67.5468C58.7969 68.151 58.2084 68.6198 57.4375 68.9531C56.6719 69.2864 55.7474 69.4531 54.6641 69.4531C53.7318 69.4531 52.9635 69.4088 52.3593 69.3203C51.7552 69.2317 51.2813 69.1328 50.9375 69.0234C50.5938 68.9088 50.3515 68.8073 50.2109 68.7187C50.0755 68.6302 50.0079 68.5859 50.0079 68.5859V65.0078ZM66.1562 69.4375C65.526 69.4375 64.9114 69.3385 64.3124 69.1406C63.7135 68.9427 63.1718 68.6484 62.6874 68.2578C62.2031 67.8619 61.8178 67.375 61.5312 66.7968C61.2447 66.2187 61.1015 65.5468 61.1015 64.7812C61.1015 63.8281 61.2709 62.9948 61.6094 62.2812C61.9532 61.5625 62.4167 60.9661 63.0001 60.4922C63.5834 60.013 64.2448 59.6536 64.9844 59.414C65.724 59.1744 66.4921 59.0546 67.289 59.0546C68.2994 59.0546 69.1198 59.2083 69.7501 59.5156C70.3855 59.8229 70.8516 60.2187 71.1485 60.7031C71.4454 61.1875 71.5938 61.6979 71.5938 62.2343C71.5938 62.8125 71.4088 63.3724 71.039 63.914C70.6692 64.4557 70.1251 64.901 69.4062 65.25C68.6927 65.5989 67.8124 65.7734 66.7656 65.7734C66.6666 65.7734 66.5338 65.7734 66.3671 65.7734C66.2057 65.7682 66.0652 65.763 65.9454 65.7578C65.9454 66.0859 66.0234 66.3229 66.1796 66.4687C66.3359 66.6145 66.5312 66.7057 66.7656 66.7422C67.0052 66.7786 67.2448 66.7968 67.4844 66.7968C67.698 66.7968 67.9974 66.763 68.3829 66.6953C68.7735 66.6224 69.1954 66.4922 69.6485 66.3046C70.1016 66.1172 70.5312 65.8489 70.9374 65.5L71.4219 67.9296C70.8073 68.4609 70.0287 68.8463 69.086 69.0859C68.1485 69.3203 67.1718 69.4375 66.1562 69.4375ZM65.9454 63.9765L67.6562 63.5937L67.8046 62.3984C67.8046 62.3672 67.8072 62.3385 67.8124 62.3125C67.8177 62.2812 67.8204 62.25 67.8204 62.2187C67.8204 61.7604 67.6067 61.5312 67.1796 61.5312C66.8098 61.5625 66.552 61.6901 66.4062 61.914C66.2605 62.1328 66.1667 62.4218 66.1251 62.7812C66.0834 63.1354 66.0235 63.5338 65.9454 63.9765ZM77.5781 69.4375C76.9479 69.4375 76.3334 69.3385 75.7344 69.1406C75.1355 68.9427 74.5938 68.6484 74.1094 68.2578C73.6251 67.8619 73.2395 67.375 72.9531 66.7968C72.6666 66.2187 72.5235 65.5468 72.5235 64.7812C72.5235 63.8281 72.6928 62.9948 73.0312 62.2812C73.3751 61.5625 73.8386 60.9661 74.4219 60.4922C75.0053 60.013 75.6666 59.6536 76.4062 59.414C77.1459 59.1744 77.9141 59.0546 78.711 59.0546C79.7214 59.0546 80.5417 59.2083 81.1719 59.5156C81.8073 59.8229 82.2735 60.2187 82.5704 60.7031C82.8672 61.1875 83.0156 61.6979 83.0156 62.2343C83.0156 62.8125 82.8308 63.3724 82.461 63.914C82.0912 64.4557 81.5468 64.901 80.8281 65.25C80.1145 65.5989 79.2343 65.7734 78.1874 65.7734C78.0885 65.7734 77.9557 65.7734 77.789 65.7734C77.6276 65.7682 77.4869 65.763 77.3671 65.7578C77.3671 66.0859 77.4453 66.3229 77.6015 66.4687C77.7578 66.6145 77.9531 66.7057 78.1874 66.7422C78.427 66.7786 78.6666 66.7968 78.9062 66.7968C79.1197 66.7968 79.4192 66.763 79.8046 66.6953C80.1953 66.6224 80.6172 66.4922 81.0704 66.3046C81.5235 66.1172 81.9532 65.8489 82.3594 65.5L82.8438 67.9296C82.2291 68.4609 81.4506 68.8463 80.5079 69.0859C79.5704 69.3203 78.5937 69.4375 77.5781 69.4375ZM77.3671 63.9765L79.0781 63.5937L79.2265 62.3984C79.2265 62.3672 79.2292 62.3385 79.2344 62.3125C79.2396 62.2812 79.2421 62.25 79.2421 62.2187C79.2421 61.7604 79.0286 61.5312 78.6015 61.5312C78.2317 61.5625 77.9739 61.6901 77.8281 61.914C77.6822 62.1328 77.5886 62.4218 77.5469 62.7812C77.5053 63.1354 77.4453 63.5338 77.3671 63.9765ZM88.7188 56V62.3359L90.5624 59.4375H95.164L92.1719 63.6796L95.6485 69.1484H90.8829L88.9296 66C88.9088 66.0364 88.8828 66.0807 88.8515 66.1328C88.8255 66.1796 88.8073 66.2239 88.7969 66.2656V69.1484H84.6719V56H88.7188Z" fill="black"/>
</svg>
