<svg width="95" height="72" viewBox="0 0 95 72" fill="none" xmlns="http://www.w3.org/2000/svg">
<path d="M25.7188 61.9277C25.7188 61.4447 25.7803 60.9798 25.9033 60.5332C26.0309 60.082 26.2155 59.6628 26.457 59.2754C26.6986 58.888 26.9948 58.5348 27.3457 58.2158C27.6966 57.8968 28.0954 57.6234 28.542 57.3955C28.9932 57.1676 29.4899 56.9922 30.0322 56.8691C30.5745 56.7415 31.1579 56.6777 31.7822 56.6777C32.1833 56.6777 32.5661 56.7028 32.9307 56.7529C33.2998 56.8031 33.6462 56.8737 33.9697 56.9648C34.2933 57.0514 34.5918 57.154 34.8652 57.2725C35.1432 57.3864 35.3939 57.5072 35.6172 57.6348L35.0293 58.7832C34.7741 58.6602 34.4824 58.5576 34.1543 58.4756C33.8307 58.389 33.4935 58.3457 33.1426 58.3457C32.6732 58.3457 32.238 58.43 31.8369 58.5986C31.4359 58.7673 31.0895 59.0065 30.7979 59.3164C30.5062 59.6263 30.276 60.0023 30.1074 60.4443C29.9434 60.8818 29.8613 61.374 29.8613 61.9209C29.8613 62.4632 29.9434 62.9554 30.1074 63.3975C30.2715 63.835 30.4971 64.2109 30.7842 64.5254C31.0758 64.8353 31.4199 65.0768 31.8164 65.25C32.2174 65.4186 32.6504 65.5029 33.1152 65.5029V62.0645H37.1006L36.3896 63.3564V66.1182L36.3965 66.1318C36.1732 66.264 35.8975 66.3916 35.5693 66.5146C35.2412 66.6377 34.8743 66.7493 34.4688 66.8496C34.0677 66.9453 33.6393 67.0228 33.1836 67.082C32.7279 67.1413 32.2607 67.1709 31.7822 67.1709C30.848 67.1709 30.0049 67.0342 29.2529 66.7607C28.5055 66.4827 27.8698 66.1068 27.3457 65.6328C26.8216 65.1543 26.4183 64.5983 26.1357 63.9648C25.8577 63.3268 25.7188 62.6478 25.7188 61.9277ZM38.29 60.2256H41.5645L41.8926 61.21C42.1523 61.0186 42.3962 60.8545 42.624 60.7178C42.8564 60.5765 43.0798 60.4603 43.2939 60.3691C43.5127 60.2734 43.7223 60.2051 43.9229 60.1641C44.1279 60.1185 44.3307 60.0957 44.5312 60.0957C44.8229 60.0957 45.085 60.1367 45.3174 60.2188C45.5544 60.3008 45.7549 60.417 45.9189 60.5674C46.0876 60.7178 46.2152 60.8978 46.3018 61.1074C46.3929 61.3125 46.4385 61.5404 46.4385 61.791C46.4385 62.0417 46.3838 62.2718 46.2744 62.4814C46.1696 62.6911 46.0146 62.8734 45.8096 63.0283C45.6045 63.1787 45.3516 63.2972 45.0508 63.3838C44.7546 63.4658 44.415 63.5068 44.0322 63.5068L42.8291 61.9004C42.6969 61.9004 42.5534 61.9277 42.3984 61.9824C42.2435 62.0371 42.1113 62.1237 42.002 62.2422V67H38.29V60.2256ZM47.0605 63.6162C47.0605 63.0785 47.1699 62.5931 47.3887 62.1602C47.612 61.7272 47.931 61.3581 48.3457 61.0527C48.765 60.7474 49.2754 60.5127 49.877 60.3486C50.4785 60.18 51.1621 60.0957 51.9277 60.0957C52.6934 60.0957 53.377 60.18 53.9785 60.3486C54.5801 60.5127 55.0882 60.7474 55.5029 61.0527C55.9222 61.3581 56.2412 61.7272 56.46 62.1602C56.6833 62.5931 56.7949 63.0785 56.7949 63.6162C56.7949 64.1494 56.6833 64.6325 56.46 65.0654C56.2412 65.4984 55.9222 65.8675 55.5029 66.1729C55.0882 66.4782 54.5801 66.7152 53.9785 66.8838C53.377 67.0479 52.6934 67.1299 51.9277 67.1299C51.1621 67.1299 50.4785 67.0479 49.877 66.8838C49.2754 66.7152 48.765 66.4782 48.3457 66.1729C47.931 65.8675 47.612 65.4984 47.3887 65.0654C47.1699 64.6325 47.0605 64.1494 47.0605 63.6162ZM51.9277 65.8789C52.0964 65.8789 52.2467 65.8447 52.3789 65.7764C52.5111 65.708 52.6204 65.5895 52.707 65.4209C52.7936 65.2477 52.8597 65.0153 52.9053 64.7236C52.9508 64.432 52.9736 64.0628 52.9736 63.6162C52.9736 63.165 52.9508 62.7936 52.9053 62.502C52.8597 62.2103 52.7936 61.9801 52.707 61.8115C52.6204 61.6383 52.5111 61.5176 52.3789 61.4492C52.2467 61.3809 52.0964 61.3467 51.9277 61.3467C51.7546 61.3467 51.6019 61.3809 51.4697 61.4492C51.3421 61.5176 51.235 61.6383 51.1484 61.8115C51.0618 61.9801 50.9958 62.2103 50.9502 62.502C50.9046 62.7936 50.8818 63.165 50.8818 63.6162C50.8818 64.0628 50.9046 64.432 50.9502 64.7236C50.9958 65.0153 51.0618 65.2477 51.1484 65.4209C51.235 65.5895 51.3421 65.708 51.4697 65.7764C51.6019 65.8447 51.7546 65.8789 51.9277 65.8789ZM58.2646 55.7139H61.9766V63.0762L64.7314 60.2256H66.7822L64.6084 62.4336L67.9648 67L63.8086 66.9932L61.9766 64.3682V67H58.2646V55.7139Z" fill="black"/>
<path d="M41.6742 32.0948L58.2966 19.2978C59.1116 18.6705 60.2764 18.9152 60.6647 19.8897C62.7084 25.0289 61.7953 31.205 57.7292 35.4455C53.6632 39.6858 48.0057 40.6158 42.8347 38.4978L37.1858 41.2255C45.288 47.0009 55.1267 45.5727 61.2748 39.1564C66.1515 34.0705 67.6619 27.138 66.2496 20.8864L66.2624 20.8997C64.2144 11.7158 66.7659 8.04486 71.9924 0.5384C72.1161 0.360417 72.2398 0.182433 72.3636 0L65.4858 7.17273V7.15048L41.67 32.0994" fill="black"/>
<path d="M38.2437 35.2052C32.4284 29.4117 33.431 20.4458 38.393 15.2755C42.0622 11.4488 48.0738 9.88699 53.3217 12.183L58.9579 9.46872C57.9425 8.70339 56.6411 7.88022 55.1478 7.30177C48.3981 4.4051 40.3172 5.84675 34.8304 11.5645C29.5527 17.0686 27.893 25.5317 30.7431 32.7534C32.8721 38.1508 29.382 41.9684 25.8664 45.8219C24.6205 47.1878 23.3704 48.5539 22.3635 50L38.2394 35.2095" fill="black"/>
</svg>
