<svg width="95" height="71" viewBox="0 0 95 71" fill="none" xmlns="http://www.w3.org/2000/svg">
<g clip-path="url(#clip0_143_2)">
<path d="M47 50C60.8071 50 72 38.8071 72 25C72 11.1929 60.8071 0 47 0C33.1929 0 22 11.1929 22 25C22 38.8071 33.1929 50 47 50Z" fill="url(#paint0_linear_143_2)"/>
<path d="M47 42.5792C58.2183 42.5792 67.3125 34.7087 67.3125 25C67.3125 15.2913 58.2183 7.42084 47 7.42084C35.7817 7.42084 26.6875 15.2913 26.6875 25C26.6875 34.7087 35.7817 42.5792 47 42.5792Z" fill="white"/>
<path d="M55.7645 21.2396C55.948 21.0444 56.1688 20.8881 56.4138 20.78C56.6588 20.6718 56.923 20.6139 57.1908 20.6098C57.4586 20.6056 57.7245 20.6553 57.9728 20.7559C58.221 20.8565 58.4465 21.0059 58.6359 21.1953C58.8252 21.3847 58.9747 21.6102 59.0753 21.8584C59.1758 22.1067 59.2255 22.3726 59.2214 22.6404C59.2173 22.9082 59.1594 23.1724 59.0512 23.4174C58.943 23.6624 58.7867 23.8832 58.5916 24.0667L56.2708 26.3875L59.3395 28.1583C59.5742 28.2858 59.781 28.4589 59.9477 28.6676C60.1144 28.8763 60.2376 29.1162 60.3101 29.3733C60.3826 29.6303 60.4028 29.8993 60.3696 30.1643C60.3365 30.4293 60.2506 30.685 60.117 30.9163C59.9834 31.1475 59.8048 31.3497 59.5919 31.5108C59.3789 31.672 59.1358 31.7888 58.8769 31.8545C58.618 31.9202 58.3486 31.9333 58.0846 31.8932C57.8205 31.8531 57.5672 31.7605 57.3395 31.6208L52.2478 28.6812C52.1965 28.6514 52.1465 28.6195 52.0978 28.5854C51.8199 28.4398 51.5801 28.2309 51.3977 27.9756C51.2152 27.7204 51.0952 27.4259 51.0474 27.1158C50.9996 26.8057 51.0252 26.4887 51.1223 26.1903C51.2193 25.8919 51.3851 25.6205 51.6062 25.3979L55.7645 21.2396ZM38.0166 20.7021C37.1878 20.7021 36.3929 21.0313 35.8069 21.6174C35.2208 22.2034 34.8916 22.9983 34.8916 23.8271V28.5146C34.8916 29.3434 35.2208 30.1382 35.8069 30.7243C36.3929 31.3103 37.1878 31.6396 38.0166 31.6396C38.8454 31.6396 39.6403 31.3103 40.2263 30.7243C40.8124 30.1382 41.1416 29.3434 41.1416 28.5146V23.8271C41.1416 22.9983 40.8124 22.2034 40.2263 21.6174C39.6403 21.0313 38.8454 20.7021 38.0166 20.7021Z" fill="#1E1E1E"/>
</g>
<path d="M17.6543 55.8418H20.4502L24.292 61.1602L27.9424 55.8418H30.6631V66H26.7188V60.8115L22.9316 66.1299L19.1582 60.8115V66H17.6543V55.8418ZM32.4814 62.6162C32.4814 62.0785 32.5908 61.5931 32.8096 61.1602C33.0329 60.7272 33.3519 60.3581 33.7666 60.0527C34.1859 59.7474 34.6963 59.5127 35.2979 59.3486C35.8994 59.18 36.583 59.0957 37.3486 59.0957C38.1143 59.0957 38.7979 59.18 39.3994 59.3486C40.001 59.5127 40.5091 59.7474 40.9238 60.0527C41.3431 60.3581 41.6621 60.7272 41.8809 61.1602C42.1042 61.5931 42.2158 62.0785 42.2158 62.6162C42.2158 63.1494 42.1042 63.6325 41.8809 64.0654C41.6621 64.4984 41.3431 64.8675 40.9238 65.1729C40.5091 65.4782 40.001 65.7152 39.3994 65.8838C38.7979 66.0479 38.1143 66.1299 37.3486 66.1299C36.583 66.1299 35.8994 66.0479 35.2979 65.8838C34.6963 65.7152 34.1859 65.4782 33.7666 65.1729C33.3519 64.8675 33.0329 64.4984 32.8096 64.0654C32.5908 63.6325 32.4814 63.1494 32.4814 62.6162ZM37.3486 64.8789C37.5173 64.8789 37.6676 64.8447 37.7998 64.7764C37.932 64.708 38.0413 64.5895 38.1279 64.4209C38.2145 64.2477 38.2806 64.0153 38.3262 63.7236C38.3717 63.432 38.3945 63.0628 38.3945 62.6162C38.3945 62.165 38.3717 61.7936 38.3262 61.502C38.2806 61.2103 38.2145 60.9801 38.1279 60.8115C38.0413 60.6383 37.932 60.5176 37.7998 60.4492C37.6676 60.3809 37.5173 60.3467 37.3486 60.3467C37.1755 60.3467 37.0228 60.3809 36.8906 60.4492C36.763 60.5176 36.6559 60.6383 36.5693 60.8115C36.4827 60.9801 36.4167 61.2103 36.3711 61.502C36.3255 61.7936 36.3027 62.165 36.3027 62.6162C36.3027 63.0628 36.3255 63.432 36.3711 63.7236C36.4167 64.0153 36.4827 64.2477 36.5693 64.4209C36.6559 64.5895 36.763 64.708 36.8906 64.7764C37.0228 64.8447 37.1755 64.8789 37.3486 64.8789ZM43.6855 59.2256H46.96L47.2881 60.21C47.7712 59.8408 48.2611 59.5628 48.7578 59.376C49.2591 59.1891 49.7855 59.0957 50.3369 59.0957C50.6514 59.0957 50.943 59.1481 51.2119 59.2529C51.4854 59.3577 51.7223 59.5195 51.9229 59.7383C52.1234 59.957 52.2806 60.2396 52.3945 60.5859C52.5085 60.9277 52.5654 61.3379 52.5654 61.8164V66H48.8535V61.584C48.8535 61.347 48.8011 61.1738 48.6963 61.0645C48.5915 60.9551 48.4388 60.9004 48.2383 60.9004C48.1061 60.9004 47.9603 60.9277 47.8008 60.9824C47.6413 61.0371 47.5068 61.1237 47.3975 61.2422V66H43.6855V59.2256ZM56.2705 58.0977C55.9333 58.0977 55.6416 58.0612 55.3955 57.9883C55.154 57.9154 54.9557 57.8151 54.8008 57.6875C54.6458 57.5553 54.5319 57.4049 54.459 57.2363C54.3861 57.0632 54.3496 56.8763 54.3496 56.6758C54.3496 56.4798 54.3861 56.2952 54.459 56.1221C54.5319 55.9489 54.6458 55.7985 54.8008 55.6709C54.9557 55.5387 55.154 55.4362 55.3955 55.3633C55.6416 55.2904 55.9333 55.2539 56.2705 55.2539C56.6123 55.2539 56.904 55.2904 57.1455 55.3633C57.387 55.4362 57.5853 55.5387 57.7402 55.6709C57.8997 55.7985 58.016 55.9489 58.0889 56.1221C58.1618 56.2952 58.1982 56.4798 58.1982 56.6758C58.1982 56.8763 58.1618 57.0632 58.0889 57.2363C58.016 57.4049 57.8997 57.5553 57.7402 57.6875C57.5853 57.8151 57.387 57.9154 57.1455 57.9883C56.904 58.0612 56.6123 58.0977 56.2705 58.0977ZM54.418 59.2256H58.1299V66H54.418V59.2256ZM59.5996 62.6094C59.5996 62.1491 59.6953 61.707 59.8867 61.2832C60.0827 60.8594 60.3766 60.4857 60.7686 60.1621C61.1605 59.8385 61.6549 59.5811 62.252 59.3896C62.8535 59.1937 63.5599 59.0957 64.3711 59.0957C64.9544 59.0957 65.4535 59.1527 65.8682 59.2666C66.2829 59.376 66.6224 59.5218 66.8867 59.7041C67.151 59.8864 67.3447 60.0938 67.4678 60.3262C67.5908 60.5586 67.6523 60.7956 67.6523 61.0371C67.6523 61.224 67.609 61.4017 67.5225 61.5703C67.4359 61.7389 67.3197 61.8893 67.1738 62.0215C67.028 62.1491 66.8571 62.2516 66.6611 62.3291C66.4652 62.4066 66.2578 62.4453 66.0391 62.4453L64.3027 60.0732C64.1751 60.1872 64.0566 60.3216 63.9473 60.4766C63.8424 60.6315 63.749 60.8092 63.667 61.0098C63.5895 61.2057 63.528 61.4268 63.4824 61.6729C63.4414 61.9144 63.4209 62.181 63.4209 62.4727C63.4209 62.8783 63.471 63.2337 63.5713 63.5391C63.6715 63.8444 63.8083 64.0996 63.9814 64.3047C64.1546 64.5052 64.3597 64.6579 64.5967 64.7627C64.8382 64.863 65.1003 64.9131 65.3828 64.9131C65.5195 64.9131 65.6562 64.904 65.793 64.8857C65.9342 64.863 66.0664 64.8356 66.1895 64.8037C66.3171 64.7673 66.4333 64.7262 66.5381 64.6807C66.6429 64.6351 66.7318 64.5872 66.8047 64.5371L67.3516 65.4941C67.1829 65.5807 66.9984 65.6628 66.7979 65.7402C66.6019 65.8177 66.3831 65.8861 66.1416 65.9453C65.9046 66 65.6426 66.0433 65.3555 66.0752C65.0684 66.1117 64.7539 66.1299 64.4121 66.1299C63.5918 66.1299 62.8786 66.0342 62.2725 65.8428C61.6709 65.6468 61.1719 65.387 60.7754 65.0635C60.3789 64.7399 60.0827 64.3662 59.8867 63.9424C59.6953 63.5186 59.5996 63.0742 59.5996 62.6094ZM68.5068 63.8672C68.5068 63.5391 68.5798 63.2337 68.7256 62.9512C68.8714 62.6686 69.0811 62.4225 69.3545 62.2129C69.6279 62.0033 69.9583 61.8392 70.3457 61.7207C70.7331 61.5977 71.166 61.5361 71.6445 61.5361C72.123 61.5361 72.5697 61.5931 72.9844 61.707C73.4036 61.8164 73.7546 61.9577 74.0371 62.1309V62.0762C74.0371 61.7572 74.0007 61.486 73.9277 61.2627C73.8594 61.0394 73.7523 60.8571 73.6064 60.7158C73.4606 60.5745 73.2738 60.472 73.0459 60.4082C72.8226 60.3444 72.5583 60.3125 72.2529 60.3125C71.9749 60.3125 71.6878 60.3376 71.3916 60.3877C71.0954 60.4333 70.8219 60.5016 70.5713 60.5928L70.0723 59.6699C70.569 59.4648 71.0817 59.319 71.6104 59.2324C72.1436 59.1413 72.6927 59.0957 73.2578 59.0957C73.9824 59.0957 74.6227 59.1663 75.1787 59.3076C75.7393 59.4443 76.2087 59.6517 76.5869 59.9297C76.9697 60.2031 77.2591 60.5495 77.4551 60.9688C77.651 61.3835 77.749 61.8711 77.749 62.4316V66H74.2832L74.0508 65.3438C73.9141 65.4486 73.7523 65.5488 73.5654 65.6445C73.3786 65.7402 73.1735 65.8245 72.9502 65.8975C72.7269 65.9704 72.4899 66.0273 72.2393 66.0684C71.9886 66.1094 71.7266 66.1299 71.4531 66.1299C71.0065 66.1299 70.6009 66.0729 70.2363 65.959C69.8763 65.8405 69.5687 65.681 69.3135 65.4805C69.0583 65.2799 68.86 65.043 68.7188 64.7695C68.5775 64.4915 68.5068 64.1908 68.5068 63.8672ZM72.335 63.7236C72.335 63.9697 72.4147 64.1702 72.5742 64.3252C72.7337 64.4756 72.9479 64.5508 73.2168 64.5508C73.3626 64.5508 73.5062 64.528 73.6475 64.4824C73.7887 64.4323 73.9186 64.3594 74.0371 64.2637V63.1084C73.8092 62.9717 73.5586 62.9033 73.2852 62.9033C72.9753 62.9033 72.7383 62.9808 72.5742 63.1357C72.4147 63.2861 72.335 63.4821 72.335 63.7236Z" fill="black"/>
<defs>
<linearGradient id="paint0_linear_143_2" x1="22" y1="25.5854" x2="72" y2="25.5854" gradientUnits="userSpaceOnUse">
<stop stop-color="#A83FE0"/>
<stop offset="0.477" stop-color="#515FFB"/>
<stop offset="1" stop-color="#2BB5DD"/>
</linearGradient>
<clipPath id="clip0_143_2">
<rect width="50" height="50" fill="white" transform="translate(22)"/>
</clipPath>
</defs>
</svg>
