<svg width="112" height="69" viewBox="0 0 112 69" fill="none" xmlns="http://www.w3.org/2000/svg">
<path d="M25.041 55.4004H22.1426V53.835H31.8906V55.4004H28.9922V64H25.041V55.4004ZM33.0322 52.7139H36.7441V58.3125C37.2546 57.9434 37.7764 57.6494 38.3096 57.4307C38.8473 57.2074 39.4102 57.0957 39.998 57.0957C40.3125 57.0957 40.6042 57.1481 40.873 57.2529C41.1465 57.3577 41.3835 57.5195 41.584 57.7383C41.7845 57.957 41.9417 58.2396 42.0557 58.5859C42.1696 58.9277 42.2266 59.3379 42.2266 59.8164V64H38.5146V59.584C38.5146 59.347 38.4622 59.1738 38.3574 59.0645C38.2572 58.9551 38.0908 58.9004 37.8584 58.9004C37.7536 58.9004 37.6488 58.9163 37.5439 58.9482C37.4437 58.9801 37.3457 59.0212 37.25 59.0713C37.1543 59.1214 37.0632 59.1784 36.9766 59.2422C36.89 59.306 36.8125 59.3698 36.7441 59.4336V64H33.0322V52.7139ZM43.6348 60.5752C43.6348 60.1833 43.6963 59.8255 43.8193 59.502C43.9424 59.1784 44.111 58.889 44.3252 58.6338C44.5439 58.374 44.8014 58.1484 45.0977 57.957C45.3939 57.7656 45.7152 57.6061 46.0615 57.4785C46.4079 57.3509 46.7702 57.2552 47.1484 57.1914C47.5267 57.1276 47.9095 57.0957 48.2969 57.0957C48.8073 57.0957 49.2699 57.1481 49.6846 57.2529C50.1038 57.3532 50.4753 57.4922 50.7988 57.6699C51.127 57.8477 51.4095 58.055 51.6465 58.292C51.888 58.529 52.0863 58.7819 52.2412 59.0508C52.4007 59.3151 52.5169 59.5885 52.5898 59.8711C52.6673 60.1536 52.7061 60.4294 52.7061 60.6982L47.5381 61.3203C47.6383 61.8262 47.8389 62.2181 48.1396 62.4961C48.4404 62.7741 48.862 62.9131 49.4043 62.9131C49.7005 62.9131 49.9762 62.8766 50.2314 62.8037C50.4912 62.7308 50.694 62.6419 50.8398 62.5371L51.3867 63.4941C51.2181 63.5807 51.0335 63.6628 50.833 63.7402C50.637 63.8177 50.4183 63.8861 50.1768 63.9453C49.9398 64 49.6755 64.0433 49.3838 64.0752C49.0967 64.1117 48.7799 64.1299 48.4336 64.1299C47.6042 64.1299 46.8887 64.0342 46.2871 63.8428C45.6855 63.6468 45.1865 63.387 44.79 63.0635C44.3981 62.7354 44.1064 62.3571 43.915 61.9287C43.7282 61.5003 43.6348 61.0492 43.6348 60.5752ZM49.3906 60.001C49.3906 59.4085 49.3154 58.9779 49.165 58.709C49.0192 58.4401 48.8005 58.3057 48.5088 58.3057C48.3584 58.3057 48.2194 58.3421 48.0918 58.415C47.9642 58.488 47.8548 58.6019 47.7637 58.7568C47.6725 58.9118 47.5996 59.1123 47.5449 59.3584C47.4902 59.5999 47.4606 59.8939 47.4561 60.2402L49.3906 60.001ZM54.333 53.8418H59.7061C60.4626 53.8418 61.1234 53.9056 61.6885 54.0332C62.2581 54.1608 62.7321 54.3431 63.1104 54.5801C63.4932 54.8125 63.7803 55.0951 63.9717 55.4277C64.1631 55.7559 64.2588 56.1227 64.2588 56.5283C64.2588 56.9339 64.1449 57.3167 63.917 57.6768C63.6937 58.0322 63.3656 58.3398 62.9326 58.5996C63.6436 58.8047 64.1745 59.1055 64.5254 59.502C64.8763 59.8984 65.0518 60.3838 65.0518 60.958C65.0518 61.3499 64.9561 61.7282 64.7646 62.0928C64.5778 62.4574 64.2952 62.7809 63.917 63.0635C63.5433 63.346 63.0739 63.5739 62.5088 63.7471C61.9437 63.9157 61.2829 64 60.5264 64H54.333V53.8418ZM58.708 57.9707C59.0817 57.9707 59.3962 57.9365 59.6514 57.8682C59.9066 57.7952 60.1094 57.6973 60.2598 57.5742C60.4147 57.4512 60.5241 57.3099 60.5879 57.1504C60.6562 56.9909 60.6904 56.8245 60.6904 56.6514C60.6904 56.4782 60.6562 56.3118 60.5879 56.1523C60.5241 55.9928 60.4147 55.8538 60.2598 55.7354C60.1094 55.6123 59.9066 55.5143 59.6514 55.4414C59.3962 55.3685 59.0817 55.332 58.708 55.332H58.291L58.2842 57.9707H58.708ZM58.708 62.5098C59.1136 62.5098 59.4554 62.4665 59.7334 62.3799C60.0114 62.2933 60.237 62.1748 60.4102 62.0244C60.5833 61.874 60.7087 61.6986 60.7861 61.498C60.8636 61.293 60.9023 61.0742 60.9023 60.8418C60.9023 60.6367 60.8613 60.4362 60.7793 60.2402C60.6973 60.0443 60.5742 59.8711 60.4102 59.7207C60.2507 59.5658 60.0524 59.4427 59.8154 59.3516C59.5785 59.2559 59.305 59.208 58.9951 59.208H58.2842V62.5098H58.708ZM76.4199 56.4053L75.2441 53.8418H79.4072L84.3838 64.0068H79.9199L79.168 62.3799H75.1621L74.417 64.0068H72.6875L76.4199 56.4053ZM78.4502 60.8145L77.165 58.0254L75.8867 60.8145H78.4502ZM85.7783 53.8418H89.7363L89.7295 64H85.7783V53.8418Z" fill="black"/>
<path d="M66.8701 62.5645C66.8701 62.3503 66.9089 62.1497 66.9863 61.9629C67.0684 61.7715 67.1937 61.6074 67.3623 61.4707C67.5355 61.3294 67.7542 61.2178 68.0186 61.1357C68.2829 61.0537 68.6019 61.0127 68.9756 61.0127C69.3447 61.0127 69.6615 61.0537 69.9258 61.1357C70.1947 61.2178 70.4134 61.3294 70.582 61.4707C70.7507 61.6074 70.8737 61.7715 70.9512 61.9629C71.0332 62.1497 71.0742 62.3503 71.0742 62.5645C71.0742 62.7832 71.0332 62.9883 70.9512 63.1797C70.8737 63.3665 70.7507 63.5306 70.582 63.6719C70.4134 63.8086 70.1947 63.918 69.9258 64C69.6615 64.082 69.3447 64.123 68.9756 64.123C68.6019 64.123 68.2829 64.082 68.0186 64C67.7542 63.918 67.5355 63.8086 67.3623 63.6719C67.1937 63.5306 67.0684 63.3665 66.9863 63.1797C66.9089 62.9883 66.8701 62.7832 66.8701 62.5645Z" fill="#E61E41"/>
<path d="M18.9222 19.6487H11.6235V34.6429H8.31196V19.6487H1V16.3286H18.9222V19.6487Z" fill="#040000"/>
<path d="M24.3491 34.6429H21.0376V15H24.3491V34.6429ZM36.2977 34.6429H32.9862V25.4865C32.9862 25.0529 32.8763 24.7222 32.6549 24.4974C32.4336 24.2725 32.1023 24.1593 31.6611 24.1593H25.6875V20.8392H31.6611C31.9748 20.8392 32.3061 20.876 32.6549 20.948C33.0038 21.02 33.3498 21.1332 33.6928 21.286C34.0373 21.4389 34.3657 21.6373 34.6794 21.8798C34.9931 22.1223 35.2701 22.4162 35.5076 22.7616C35.7451 23.107 35.9357 23.5038 36.0808 23.955C36.2244 24.4062 36.2977 24.9177 36.2977 25.4879V34.6443V34.6429Z" fill="#040000"/>
<path d="M54.1421 25.4086C54.1421 25.8686 54.0615 26.3639 53.9002 26.8959C53.739 27.428 53.478 27.9218 53.1174 28.3774C52.7568 28.833 52.2848 29.2137 51.7028 29.5209C51.1208 29.8266 50.4143 29.9809 49.5816 29.9809H43.6081V26.8269H49.5816C50.0317 26.8269 50.3791 26.6887 50.6254 26.4124C50.8716 26.1361 50.9948 25.7937 50.9948 25.3836C50.9948 24.9486 50.857 24.6091 50.5814 24.3621C50.3058 24.1152 49.9716 23.9918 49.5816 23.9918H43.6081C43.158 23.9918 42.8091 24.1299 42.5643 24.4062C42.3181 24.6825 42.1949 25.025 42.1949 25.435V30.0705C42.1949 30.5129 42.3327 30.8583 42.6083 31.1052C42.8839 31.3521 43.2255 31.4756 43.6344 31.4756H49.5831V34.6429H43.6095C43.1507 34.6429 42.6567 34.562 42.126 34.4004C41.5954 34.2387 41.1028 33.9771 40.6484 33.6155C40.1939 33.254 39.8143 32.7807 39.5079 32.1972C39.203 31.6138 39.0491 30.9053 39.0491 30.0705V25.4086C39.0491 24.9486 39.1297 24.4533 39.2909 23.9212C39.4522 23.3892 39.7131 22.8954 40.0737 22.4397C40.4344 21.9841 40.9064 21.6035 41.4883 21.2963C42.0703 20.9891 42.7769 20.8363 43.6095 20.8363H49.5831C50.0419 20.8363 50.5359 20.9171 51.0666 21.0788C51.5973 21.2404 52.0898 21.5021 52.5442 21.8636C52.9987 22.2252 53.3784 22.6984 53.6847 23.2819C53.9911 23.8654 54.1436 24.5738 54.1436 25.4086H54.1421Z" fill="#040000"/>
<path d="M74.9698 30.6202C74.9698 31.0288 74.8995 31.4668 74.7602 31.9356C74.6195 32.4045 74.3908 32.838 74.0727 33.2378C73.7546 33.6376 73.3397 33.9727 72.8311 34.2402C72.3209 34.5091 71.6979 34.6429 70.9591 34.6429H58.386C58.1485 34.6429 57.9272 34.6002 57.7234 34.515C57.5196 34.4298 57.3437 34.3122 57.1942 34.1637C57.0461 34.0153 56.9289 33.8375 56.8438 33.6332C56.7588 33.4289 56.7163 33.2069 56.7163 32.9689V18.0012C56.7163 17.7719 56.7588 17.5544 56.8438 17.3501C56.9289 17.1458 57.0461 16.9665 57.1942 16.8137C57.3423 16.6608 57.5196 16.5418 57.7234 16.4565C57.9272 16.3713 58.1485 16.3286 58.386 16.3286H69.4683C69.8758 16.3286 70.3126 16.4007 70.7803 16.5462C71.2479 16.6917 71.6833 16.9224 72.0864 17.2428C72.4895 17.5617 72.8252 17.9777 73.0935 18.4877C73.3603 18.9991 73.4951 19.6238 73.4951 20.3645V20.9906C73.4951 21.5785 73.3969 22.2105 73.2019 22.8865C73.007 23.5641 72.6918 24.2034 72.2594 24.8089C72.6332 25.0382 72.9835 25.316 73.3104 25.6393C73.6373 25.9627 73.9232 26.3375 74.1709 26.7637C74.4172 27.1899 74.6122 27.6705 74.7573 28.2069C74.9009 28.7434 74.9742 29.3357 74.9742 29.9824V30.6202H74.9698ZM71.6583 29.9824C71.6583 29.5488 71.5909 29.1593 71.4546 28.8139C71.3182 28.4686 71.1277 28.1731 70.8814 27.9262C70.6351 27.6793 70.3376 27.4897 69.9901 27.3574C69.6412 27.2252 69.2513 27.159 68.8174 27.159H61.353V23.8125H67.3266C67.759 23.8125 68.1504 23.7463 68.4978 23.6141C68.8453 23.4818 69.1428 23.2922 69.3891 23.0453C69.6354 22.7984 69.8245 22.503 69.9564 22.1576C70.0883 21.8122 70.1543 21.4227 70.1543 20.9891V20.363C70.1543 19.8868 69.9256 19.6473 69.4668 19.6473H60.0278V31.3198H70.9576C71.0163 31.3198 71.0896 31.3154 71.1746 31.3066C71.2596 31.2978 71.3358 31.2728 71.4033 31.2302C71.4707 31.1875 71.5308 31.1155 71.5821 31.0127C71.6334 30.9098 71.6583 30.7701 71.6583 30.5908V29.978V29.9824Z" fill="#040000"/>
<path d="M103.357 34.6429H100.046V30.147H88.4035V34.6429H85.092V25.4865C85.092 24.1505 85.3207 22.9189 85.7796 21.796C86.2384 20.6717 86.8746 19.7061 87.6896 18.8963C88.5047 18.0879 89.4693 17.4574 90.5819 17.0062C91.6945 16.555 92.9083 16.3286 94.2247 16.3286H101.689C101.918 16.3286 102.135 16.3713 102.338 16.4565C102.542 16.5418 102.721 16.6608 102.874 16.8137C103.026 16.9665 103.145 17.1458 103.23 17.3501C103.315 17.5544 103.357 17.7719 103.357 18.0012V34.6429ZM88.4021 26.8269H100.044V19.6487H94.2232C94.1206 19.6487 93.9066 19.6634 93.5797 19.6928C93.2528 19.7222 92.8746 19.7972 92.4465 19.9162C92.017 20.0353 91.5655 20.219 91.0905 20.4659C90.6141 20.7128 90.1773 21.0538 89.7786 21.4874C89.3798 21.9224 89.05 22.4647 88.792 23.1158C88.5325 23.7669 88.4035 24.5576 88.4035 25.485V26.8254L88.4021 26.8269Z" fill="#040000"/>
<path d="M110.542 34.6429H107.23V16.3286H110.542V34.6429Z" fill="#040000"/>
<path d="M77.623 37.3016C77.623 36.1993 78.4586 35.2734 79.558 35.2734C80.6575 35.2734 81.537 36.1993 81.537 37.3016C81.537 38.4921 80.7015 39.2857 79.558 39.2857C78.3267 39.2416 77.623 38.4039 77.623 37.3016Z" fill="#E61E41"/>
</svg>
